<?xml version="1.0" encoding="UTF-8"?>
<svg version="1.1" xmlns="http://www.w3.org/2000/svg" width="2560" height="1440">
<path d="M0 0 C5.22662926 1.94498999 10.63513998 3.29973689 16.01416016 4.75537109 C18.96417528 5.576939 21.91278415 6.4015377 24.85644531 7.24560547 C26.78750884 7.76126273 28.73785724 8.20859333 30.69921875 8.59326172 C31.6629541 8.79628906 32.62668945 8.99931641 33.61962891 9.20849609 C34.47709717 9.36479492 35.33456543 9.52109375 36.21801758 9.68212891 C43.95081934 13.80203312 46.53816074 25.53679516 49.52587891 33.16162109 C50.07695994 34.55030318 50.62880022 35.93868418 51.18135071 37.32678223 C52.63259268 40.97762569 54.07481017 44.63196301 55.51470947 48.28729248 C57.79132505 54.06201759 60.08174839 59.83129456 62.3711071 65.60097694 C62.93254225 67.01620625 63.49366526 68.43155942 64.05447578 69.84703636 C68.8068076 81.83906669 73.71292958 93.76127726 78.71456909 105.65167236 C80.81071709 110.64989498 82.85140427 115.67060108 84.88916016 120.69287109 C85.56023804 122.34295166 85.56023804 122.34295166 86.24487305 124.02636719 C88.84474713 130.4223305 91.437781 136.82105939 94.02978516 143.22021484 C94.92451109 145.42901361 95.81924977 147.63780722 96.71401978 149.84658813 C97.3335091 151.37584703 97.95295452 152.90512372 98.57235718 154.43441772 C104.25726444 168.46823792 109.97588182 182.48818362 115.70166016 196.50537109 C123.19807148 214.85765855 130.66542589 233.22141135 138.10496521 251.59681702 C140.43167308 257.34229235 142.76487906 263.08511043 145.10118103 268.82669067 C146.48700419 272.23268137 147.87126844 275.63927973 149.25073242 279.04785156 C151.57894168 284.79881866 153.91924226 290.54317703 156.32275391 296.26318359 C156.70890869 297.19380615 157.09506348 298.12442871 157.49291992 299.08325195 C158.18724522 300.75516976 158.89129757 302.4231011 159.60766602 304.08569336 C161.32447923 308.25296478 161.80128483 310.66900071 160.70166016 315.00537109 C155.10868688 315.30992068 149.51495924 315.58957982 143.91986084 315.85223389 C141.74426291 315.95575912 139.56884658 316.06316237 137.39361572 316.1741333 C128.60309036 316.61462329 119.81456592 316.91954486 111.01416016 317.06787109 C110.33001541 317.07958847 109.64587067 317.09130585 108.94099426 317.1033783 C86.40510991 317.43739538 66.06191571 314.66150275 44.45166016 308.25537109 C43.21703033 307.88985138 41.98240051 307.52433167 40.71035767 307.1477356 C37.23246315 306.09648953 33.7689732 305.01101372 30.31103516 303.89599609 C29.28803818 303.56657516 28.2650412 303.23715424 27.21104431 302.89775085 C18.31010434 299.85749871 18.31010434 299.85749871 15.70166016 296.00537109 C14.28601264 293.09445132 13.14020355 290.11264923 12.01416016 287.07958984 C11.6749353 286.19243286 11.33571045 285.30527588 10.98620605 284.39123535 C9.88142524 281.49544867 8.79161324 278.59426743 7.70166016 275.69287109 C6.93908966 273.68699956 6.17540995 271.68154938 5.41064453 269.67651367 C3.88046945 265.66162745 2.35533076 261.64488932 0.83447266 257.62646484 C-1.76588441 250.76254284 -4.41088325 243.91627016 -7.06799316 237.07415771 C-7.79142307 235.21068788 -8.51315149 233.3465578 -9.23486328 231.48242188 C-13.55983495 220.3118547 -17.92099132 209.15550655 -22.29833984 198.00537109 C-24.56920348 201.41166654 -25.89771344 204.92225212 -27.32568359 208.72802734 C-27.62635742 209.52016632 -27.92703125 210.3123053 -28.23681641 211.12844849 C-29.23994433 213.77362857 -30.23781089 216.42076341 -31.23583984 219.06787109 C-31.94256444 220.93365939 -32.64968506 222.79929773 -33.35717773 224.66479492 C-34.87329645 228.66400571 -36.3873788 232.66397891 -37.89990234 236.66455078 C-41.59649913 246.44035796 -45.30614003 256.21121185 -49.01687622 265.98165894 C-50.19978379 269.0978858 -51.38091501 272.21478105 -52.56176758 275.33178711 C-56.43521215 285.54712359 -60.3409198 295.74954112 -64.30224609 305.93115234 C-64.68815414 306.92793503 -65.07406219 307.92471771 -65.47166443 308.95170593 C-65.82769241 309.86313858 -66.1837204 310.77457123 -66.55053711 311.71362305 C-66.86467056 312.52039993 -67.17880402 313.32717682 -67.50245667 314.15840149 C-68.29833984 316.00537109 -68.29833984 316.00537109 -69.29833984 317.00537109 C-71.66395173 317.1302834 -74.00185082 317.19137868 -76.36914062 317.21069336 C-77.10906754 317.22059296 -77.84899445 317.23049255 -78.61134338 317.24069214 C-81.07207994 317.27242459 -83.53283547 317.29712492 -85.99365234 317.32177734 C-87.70181782 317.3423511 -89.40997825 317.36334768 -91.11813354 317.38475037 C-95.62979933 317.44008227 -100.14151228 317.48941289 -104.65325928 317.53759766 C-109.22249806 317.58753359 -113.7916628 317.6434823 -118.36083984 317.69873047 C-125.05758477 317.77858251 -131.75434523 317.85673822 -138.45117188 317.92944336 C-139.14444077 317.93722305 -139.83770966 317.94500275 -140.55198669 317.95301819 C-142.46740918 317.97336453 -144.38287545 317.98945179 -146.29833984 318.00537109 C-147.52516983 318.02802032 -148.75199982 318.05066956 -150.01600647 318.07400513 C-152.83058315 318.01515195 -154.98742678 317.76683275 -157.6628418 316.9831543 C-158.44508621 316.75904373 -159.22733063 316.53493317 -160.03327942 316.30403137 C-160.85938217 316.05723129 -161.68548492 315.81043121 -162.53662109 315.55615234 C-163.41626022 315.30165817 -164.29589935 315.047164 -165.20219421 314.78495789 C-168.00770253 313.97131537 -170.80928586 313.14501498 -173.61083984 312.31787109 C-175.44977595 311.78118379 -177.28896696 311.24536909 -179.12841797 310.71044922 C-181.8540094 309.91774008 -184.57940085 309.12442145 -187.30374146 308.3274231 C-195.94539801 305.80222863 -204.61677745 303.38921264 -213.29833984 301.00537109 C-214.82074337 297.10259933 -213.70978233 294.77228076 -212.15771484 291.00146484 C-211.42584961 289.19935547 -211.42584961 289.19935547 -210.67919922 287.36083984 C-210.13574996 286.05477929 -209.59212553 284.74879161 -209.04833984 283.44287109 C-208.49324992 282.08653092 -207.93922754 280.7297534 -207.38623047 279.37255859 C-206.25036642 276.58991332 -205.1082895 273.8099529 -203.96044922 271.03222656 C-201.99952138 266.28644806 -200.06368605 261.53056089 -198.12866211 256.77416992 C-197.2322519 254.57155728 -196.33426988 252.36958375 -195.43481445 250.16821289 C-192.11795964 242.04719045 -188.85688205 233.90491665 -185.61083984 225.75537109 C-180.93342842 214.01699595 -176.16499054 202.31740933 -171.36083984 190.63037109 C-171.02069855 189.80284332 -170.68055725 188.97531555 -170.33010864 188.12271118 C-169.99035004 187.29613007 -169.65059143 186.46954895 -169.30053711 185.61791992 C-168.618795 183.95931816 -167.93707289 182.30070818 -167.25537109 180.64208984 C-166.92038101 179.82704483 -166.58539093 179.01199982 -166.24024963 178.17225647 C-162.9933443 170.26907181 -159.7644439 162.35863687 -156.54833984 154.44287109 C-156.28168518 153.78658722 -156.01503052 153.13030334 -155.74029541 152.45413208 C-152.03862003 143.33863362 -148.37776263 134.20742923 -144.73583984 125.06787109 C-138.90339636 110.43187115 -132.93823193 95.85063285 -126.97427368 81.26782227 C-121.91113161 68.8859092 -116.86831988 56.49746889 -111.92333984 44.06787109 C-107.86130691 33.86452626 -103.74056276 23.68669552 -99.5692749 13.52755737 C-98.93470019 11.98177411 -98.30094014 10.43565614 -97.66802979 8.88919067 C-96.79353472 6.7536433 -95.91564551 4.61952616 -95.03662109 2.48583984 C-94.77370773 1.84268829 -94.51079437 1.19953674 -94.23991394 0.53689575 C-92.41309316 -3.87987559 -92.41309316 -3.87987559 -91.29833984 -4.99462891 C-88.27878245 -5.22981429 -85.28019563 -5.40057479 -82.25537109 -5.52587891 C-81.31828812 -5.56668579 -80.38120514 -5.60749268 -79.41572571 -5.64953613 C-20.39652595 -8.09186525 -20.39652595 -8.09186525 0 0 Z " fill="#EC7E95" transform="translate(1670.29833984375,386.99462890625)"/>
<path d="M0 0 C1.09578369 0.31864014 2.19156738 0.63728027 3.32055664 0.96557617 C5.03166626 1.47181519 5.03166626 1.47181519 6.77734375 1.98828125 C14.23084757 4.17536923 21.67813829 6.32285488 29.21484375 8.20703125 C30.40198975 8.50778564 31.58913574 8.80854004 32.81225586 9.1184082 C35.07993327 9.68768423 37.35154962 10.24154676 39.62719727 10.77807617 C40.64740967 11.03693604 41.66762207 11.2957959 42.71875 11.5625 C43.61408447 11.77865967 44.50941895 11.99481934 45.43188477 12.2175293 C50.14782761 14.45521921 51.47815595 19.89302604 53.32421875 24.48828125 C53.56759979 25.09054031 53.81098083 25.69279938 54.06173706 26.31330872 C54.86665015 28.30759483 55.66568478 30.30418318 56.46484375 32.30078125 C57.03650934 33.71982142 57.608622 35.13868156 58.18115234 36.55737305 C59.39770424 39.57314381 60.61215888 42.58974716 61.82519531 45.60693359 C64.6712814 52.68194882 67.54029321 59.74767242 70.40734863 66.81420898 C71.29662946 69.00673616 72.18509848 71.19959012 73.07324219 73.39257812 C78.60014453 87.03691116 84.15789242 100.6686649 89.71484375 114.30078125 C90.61475221 116.50854243 91.51465467 118.71630605 92.41455078 120.92407227 C93.07379295 122.54142525 93.07379295 122.54142525 93.74635315 124.19145203 C103.92614121 149.16640038 114.09552134 174.14539644 124.21939087 199.14306641 C126.09357999 203.76985876 127.97121373 208.39523897 129.8515625 213.01953125 C130.10797516 213.65014969 130.36438782 214.28076813 130.62857056 214.93049622 C131.66523365 217.47992752 132.7019351 220.02934321 133.73876953 222.57870483 C137.28092164 231.28967984 140.80905939 240.00623473 144.328125 248.7265625 C144.73183319 249.72656784 145.13554138 250.72657318 145.55148315 251.75688171 C147.61355619 256.864802 149.67418567 261.9732961 151.73242188 267.08276367 C155.30881675 275.95092324 158.90184971 284.80885649 162.6328125 293.61328125 C162.92406509 294.30339798 163.21531769 294.99351471 163.51539612 295.70454407 C164.83030976 298.8188805 166.15549362 301.92725734 167.50219727 305.02807617 C168.17206665 306.60745972 168.17206665 306.60745972 168.85546875 308.21875 C169.24250977 309.11360107 169.62955078 310.00845215 170.02832031 310.93041992 C170.78479301 313.54229523 170.69059659 314.79225408 169.71484375 317.30078125 C167.81326681 319.20235819 164.36904918 318.56785975 161.77563477 318.63647461 C161.04533082 318.65878301 160.31502687 318.6810914 159.56259251 318.70407581 C149.80275002 318.98519042 140.04053919 319.13790579 130.27734375 319.23828125 C129.33424976 319.24843388 128.39115578 319.2585865 127.41948318 319.26904678 C95.62927754 319.56968557 67.89866249 316.65958069 37.96905518 305.0942688 C35.45010436 304.20759238 32.90628953 303.55543719 30.32299805 302.88110352 C25.97143599 301.59408769 25.97143599 301.59408769 23.86865234 299.19042969 C23.57812988 298.35543945 23.28760742 297.52044922 22.98828125 296.66015625 C22.61928711 295.67595703 22.25029297 294.69175781 21.87011719 293.67773438 C21.48887695 292.56333984 21.10763672 291.44894531 20.71484375 290.30078125 C20.23933464 289.05306004 19.75759341 287.80770079 19.27050781 286.56445312 C17.8851131 283.01604225 16.54224597 279.45319049 15.21066284 275.88427734 C13.69280755 271.81694646 12.1620502 267.75446818 10.6328125 263.69140625 C10.31528519 262.8468689 9.99775787 262.00233154 9.67060852 261.13220215 C6.04629998 251.50311835 2.35199491 241.90111547 -1.34765625 232.30078125 C-1.81724762 231.08171082 -1.81724762 231.08171082 -2.29632568 229.8380127 C-2.90639983 228.25428932 -3.51658592 226.67060907 -4.12689209 225.0869751 C-4.70553388 223.58526474 -5.28387185 222.08343728 -5.86187744 220.58148193 C-7.17472334 217.17178972 -8.49320337 213.76458856 -9.82763672 210.36328125 C-10.2867041 209.18765625 -10.74577148 208.01203125 -11.21875 206.80078125 C-11.6202124 205.77984375 -12.0216748 204.75890625 -12.43530273 203.70703125 C-13.28515625 201.30078125 -13.28515625 201.30078125 -13.28515625 199.30078125 C-13.94515625 199.30078125 -14.60515625 199.30078125 -15.28515625 199.30078125 C-15.40197754 200.15986084 -15.51879883 201.01894043 -15.63916016 201.90405273 C-16.30040606 205.38096664 -17.32240741 208.35913374 -18.62109375 211.6484375 C-19.34244507 213.49078979 -19.34244507 213.49078979 -20.07836914 215.37036133 C-20.33538605 216.01905182 -20.59240295 216.66774231 -20.85720825 217.33609009 C-21.96294632 220.12773096 -23.05528783 222.92455581 -24.14851379 225.72111511 C-24.71314305 227.16521844 -25.27840474 228.60907465 -25.84428406 230.0526886 C-28.39196455 236.55538155 -30.87936384 243.08004843 -33.34765625 249.61328125 C-34.23306402 251.95182628 -35.11848133 254.29036771 -36.00390625 256.62890625 C-36.50524192 257.95376333 -37.00654184 259.27863394 -37.5078125 260.60351562 C-38.10025226 262.16927392 -38.69270105 263.7350288 -39.28515625 265.30078125 C-39.83091309 266.74312134 -39.83091309 266.74312134 -40.38769531 268.21459961 C-42.93646222 274.94951363 -45.48772593 281.68347579 -48.04122925 288.41659546 C-48.90932015 290.70683944 -49.77661478 292.99738541 -50.64309692 295.28823853 C-51.86689768 298.52362627 -53.09332457 301.75800736 -54.3203125 304.9921875 C-54.69067627 305.9731842 -55.06104004 306.95418091 -55.44262695 307.96490479 C-55.78777344 308.87310974 -56.13291992 309.7813147 -56.48852539 310.71704102 C-56.78843887 311.50893326 -57.08835236 312.3008255 -57.39735413 313.11671448 C-57.69032883 313.83745651 -57.98330353 314.55819855 -58.28515625 315.30078125 C-58.56605103 316.04070312 -58.8469458 316.780625 -59.13635254 317.54296875 C-60.28515625 319.30078125 -60.28515625 319.30078125 -62.13499451 319.88694763 C-62.90311966 319.927397 -63.67124481 319.96784637 -64.46264648 320.00952148 C-65.8156636 320.09216751 -65.8156636 320.09216751 -67.1960144 320.17648315 C-68.72513962 320.23801071 -68.72513962 320.23801071 -70.28515625 320.30078125 C-71.3963382 320.36137726 -72.50752014 320.42197327 -73.65237427 320.48440552 C-83.87717492 320.99839771 -94.11175645 321.21866884 -104.34765625 321.36328125 C-105.57287868 321.38129917 -105.57287868 321.38129917 -106.82285309 321.39968109 C-140.12721771 321.83061918 -175.18560676 317.96409597 -205.28515625 302.30078125 C-204.81362552 295.18681765 -201.94142735 289.1708699 -199.16015625 282.67578125 C-198.33837383 280.72811518 -197.52003737 278.77902418 -196.70195007 276.82980347 C-196.12362186 275.45194624 -195.54443097 274.07445081 -194.96443176 272.69729614 C-191.64348127 264.80331836 -188.43190629 256.86566717 -185.22265625 248.92578125 C-184.59756289 247.38131956 -183.97239904 245.83688641 -183.34716797 244.29248047 C-181.6831374 240.18101392 -180.02061092 236.06894091 -178.35858154 231.95666504 C-177.24069183 229.19076677 -176.12256877 226.42496293 -175.00439453 223.65917969 C-171.78336715 215.6918957 -168.56257595 207.72451635 -165.3425293 199.75683594 C-158.60562722 183.08788366 -151.85378854 166.42502148 -145.09570312 149.76464844 C-142.3051913 142.88508848 -139.51629513 136.00487348 -136.72723389 129.12472534 C-135.16064426 125.26021718 -133.5940034 121.39572978 -132.02734375 117.53125 C-131.71757599 116.7671431 -131.40780823 116.00303619 -131.08865356 115.21577454 C-128.92789307 109.88591507 -126.76674687 104.55621209 -124.60546875 99.2265625 C-121.16586095 90.74445993 -117.72747083 82.26186423 -114.28961182 73.77905273 C-113.24838944 71.21006729 -112.20697011 68.64116174 -111.16552734 66.07226562 C-109.33988729 61.56886451 -107.51526231 57.06505285 -105.69091797 52.56112671 C-104.60864646 49.89040184 -103.52508466 47.22020309 -102.44140625 44.55004883 C-99.13592492 36.39808196 -95.85470895 28.23842232 -92.6484375 20.046875 C-92.09150548 18.63008154 -91.53446152 17.21333208 -90.97729492 15.79663086 C-89.95776545 13.20374041 -88.95056427 10.60653035 -87.95043945 8.00610352 C-87.50659912 6.87615967 -87.06275879 5.74621582 -86.60546875 4.58203125 C-86.22664551 3.60298828 -85.84782227 2.62394531 -85.45751953 1.61523438 C-84.28515625 -0.69921875 -84.28515625 -0.69921875 -81.28515625 -2.69921875 C-78.56872559 -2.9911499 -78.56872559 -2.9911499 -75.24414062 -3.04980469 C-73.37574524 -3.0892923 -73.37574524 -3.0892923 -71.46960449 -3.12957764 C-70.10604548 -3.14811084 -68.74247902 -3.16610227 -67.37890625 -3.18359375 C-65.97464083 -3.20740815 -64.57038459 -3.23176965 -63.1661377 -3.25665283 C-60.21726256 -3.30659857 -57.26839035 -3.34935823 -54.31933594 -3.38720703 C-50.56817548 -3.43598767 -46.81761773 -3.50313229 -43.06685638 -3.57595444 C-40.16188572 -3.6301199 -37.25682501 -3.67385747 -34.35163879 -3.71466827 C-32.97071596 -3.73535545 -31.58983687 -3.75925245 -30.20903015 -3.78661346 C-19.65554083 -3.98762808 -10.13062668 -2.98737927 0 0 Z " fill="#EC7D94" transform="translate(920.28515625,389.69921875)"/>
<path d="M0 0 C7.07399911 -0.09917891 14.14797104 -0.17626474 21.22242928 -0.23412514 C25.08445392 -0.2668542 28.94534986 -0.3106068 32.80673313 -0.38934803 C49.81838582 -0.72995316 64.48704568 0.6832282 80.62371922 6.3108778 C84.52823996 7.63347972 88.49098797 8.69170847 92.47540379 9.74300671 C93.84225247 10.11556099 95.20879851 10.48922775 96.57501316 10.86410046 C98.60119209 11.41730802 100.6280877 11.96709089 102.65728855 12.50911999 C104.70343684 13.05712365 106.74580482 13.6176301 108.78790379 14.18050671 C109.96006443 14.49729382 111.13222507 14.81408092 112.33990574 15.14046764 C116.43036525 16.63091569 116.43036525 16.63091569 118.23712254 19.19613171 C118.51754727 21.77830941 118.6164329 24.11632086 118.57769871 26.69686413 C118.57813679 27.45808071 118.57857487 28.21929729 118.57902622 29.00358105 C118.57693606 31.51984837 118.55359488 34.03544952 118.53009129 36.55160046 C118.52449613 38.29608833 118.52022565 40.04058092 118.51722813 41.78507519 C118.50577302 46.37683658 118.47630019 50.96831335 118.44311619 55.55996227 C118.41242961 60.24528687 118.39872581 64.93065746 118.38360691 69.61605358 C118.35143107 78.80953802 118.30022672 88.0028112 118.23712254 97.19613171 C114.6351287 98.831841 111.81927253 99.44975683 107.87230015 99.46787548 C106.80333248 99.4775916 105.73436481 99.48730772 104.63300419 99.49731827 C103.46490963 99.49790961 102.29681507 99.49850096 101.09332371 99.49911022 C99.84805157 99.50756938 98.60277943 99.51602854 97.31977177 99.52474403 C93.86892474 99.54625881 90.41824716 99.55895573 86.96735835 99.56800556 C83.25432702 99.57994352 79.54136719 99.60340985 75.82838535 99.62557507 C69.4031268 99.66242273 62.97786695 99.69229094 56.55255222 99.71740246 C46.35230204 99.75735847 36.15214345 99.81054585 25.95196629 99.86580944 C22.47049091 99.88452589 18.989015 99.90314047 15.5075388 99.92170238 C14.2057792 99.92865327 14.2057792 99.92865327 12.87772143 99.93574458 C6.6535657 99.96878185 0.42940172 99.9998024 -5.79476833 100.03000927 C-32.70633343 100.16126777 -59.61729984 100.34173126 -86.52836514 100.55082226 C-89.64730688 100.57499326 -92.7662492 100.59908811 -95.88519192 100.62313366 C-97.03249155 100.63200318 -97.03249155 100.63200318 -98.20296896 100.64105189 C-108.86707187 100.72308003 -119.53118324 100.79191595 -130.19544876 100.84891522 C-136.0633854 100.8803252 -141.93131501 100.91304328 -147.79924369 100.94590306 C-149.22398894 100.95384494 -150.64873466 100.96170354 -152.07348084 100.96947742 C-169.34320573 101.06402443 -186.60590028 101.25362063 -203.87163067 101.65171146 C-239.26189843 102.44960081 -271.13012956 101.82726696 -304.73614407 88.94295788 C-308.92136064 87.40075737 -313.20437531 86.17953523 -317.48504543 84.93148327 C-319.76287746 84.19613171 -319.76287746 84.19613171 -320.76287746 83.19613171 C-320.86319626 80.73707949 -320.89905927 78.30609743 -320.892272 75.84652233 C-320.89402431 75.07745052 -320.89577663 74.30837872 -320.89758205 73.5160017 C-320.90200086 70.96143908 -320.89906249 68.4069451 -320.89568996 65.85238171 C-320.896363 64.0850069 -320.89733301 62.31763218 -320.89858913 60.55025768 C-320.90006615 56.84122368 -320.89791145 53.13221371 -320.89324856 49.42318249 C-320.88755127 44.65790678 -320.89083025 39.89268739 -320.89682102 35.12741375 C-320.90042655 31.47642114 -320.89928809 27.82544198 -320.89669323 24.17444897 C-320.89602394 22.41689071 -320.89685246 20.65933126 -320.89917278 18.90177441 C-320.90169917 16.44973016 -320.89785893 13.9977784 -320.892272 11.54574108 C-320.89429623 10.81219906 -320.89632046 10.07865704 -320.89840603 9.32288647 C-320.87714011 4.31039435 -320.87714011 4.31039435 -319.76287746 3.19613171 C-310.79235814 1.92793485 -301.67859223 2.03389867 -292.63934231 2.00667858 C-291.14829476 1.99868807 -289.65724941 1.99027791 -288.16620636 1.98148727 C-284.95730669 1.96346867 -281.74841181 1.94839274 -278.53948689 1.93565083 C-273.36669534 1.91509867 -268.19395 1.88793725 -263.0211935 1.86005688 C-255.59467634 1.82069386 -248.16814983 1.78440341 -240.74160671 1.75030041 C-223.19870136 1.66958157 -205.6558657 1.57531214 -188.11302662 1.48143864 C-184.18088996 1.46040902 -180.24875216 1.43961463 -176.3166132 1.41901875 C-144.54739993 1.25235491 -112.77927495 1.02092843 -81.01094151 0.73353672 C-72.30460119 0.65520519 -63.59822641 0.5843264 -54.89178371 0.51839733 C-53.10650926 0.50480647 -53.10650926 0.50480647 -51.28516865 0.49094105 C-46.63122641 0.45556496 -41.97728395 0.42023354 -37.3233366 0.38553524 C-24.88160876 0.2920795 -12.44085648 0.17560463 0 0 Z " fill="#EF829A" transform="translate(1374.7628774642944,989.8038682937622)"/>
<path d="M0 0 C1.09578369 0.31864014 2.19156738 0.63728027 3.32055664 0.96557617 C5.03166626 1.47181519 5.03166626 1.47181519 6.77734375 1.98828125 C14.23084757 4.17536923 21.67813829 6.32285488 29.21484375 8.20703125 C30.40198975 8.50778564 31.58913574 8.80854004 32.81225586 9.1184082 C35.07993327 9.68768423 37.35154962 10.24154676 39.62719727 10.77807617 C40.64740967 11.03693604 41.66762207 11.2957959 42.71875 11.5625 C43.61408447 11.77865967 44.50941895 11.99481934 45.43188477 12.2175293 C48.48074542 13.66419754 49.38137275 15.24470527 50.71484375 18.30078125 C50.38484375 19.29078125 50.05484375 20.28078125 49.71484375 21.30078125 C49.35750656 20.48748856 49.00016937 19.67419586 48.63200378 18.83625793 C46.92854742 16.00137184 46.92854742 16.00137184 43.73457336 15.69950867 C42.51545761 15.71061172 41.29634186 15.72171478 40.0402832 15.7331543 C39.36684875 15.73242416 38.69341431 15.73169403 37.99957275 15.73094177 C35.77493559 15.73442373 33.55239595 15.77330695 31.328125 15.8125 C29.78542729 15.82182613 28.24271476 15.82894319 26.69999695 15.8339386 C22.64060541 15.85302466 18.58210919 15.90213788 14.52307129 15.9574585 C10.38073845 16.00861717 6.23826085 16.03144532 2.09570312 16.05664062 C-6.03166076 16.11025633 -14.15829712 16.19558706 -22.28515625 16.30078125 C-24.90328984 21.42044278 -27.29762565 26.53689223 -29.4296875 31.875 C-29.71640823 32.5848555 -30.00312897 33.294711 -30.29853821 34.02607727 C-31.23464968 36.34558709 -32.16617078 38.6669103 -33.09765625 40.98828125 C-33.75536211 42.62057753 -34.41340844 44.25273666 -35.07177734 45.88476562 C-36.09702231 48.42664241 -37.12191799 50.96865614 -38.14550781 53.51119995 C-40.56245242 59.51461271 -42.99211606 65.51274746 -45.4296875 71.5078125 C-45.9333358 72.74708748 -45.9333358 72.74708748 -46.44715881 74.01139832 C-49.05583282 80.43021727 -49.05583282 80.43021727 -50.35317993 83.61776733 C-53.15806129 90.51132808 -55.9604049 97.40043532 -58.58984375 104.36328125 C-61.30997735 111.49430792 -64.27660782 118.51932856 -67.22377014 125.55892944 C-71.80992459 136.52601462 -76.28526062 147.5368787 -80.73706055 158.55908203 C-82.11143488 161.9598755 -83.49024315 165.35885089 -84.86914062 168.7578125 C-88.85269632 178.60286667 -92.74220647 188.4294226 -96.21923828 198.46508789 C-97.56010213 202.03222797 -99.24551169 205.33991958 -101.00830078 208.71337891 C-103.60816291 213.98170372 -105.6133164 219.50991342 -107.72265625 224.98828125 C-108.21435723 226.25355743 -108.7066314 227.518611 -109.19946289 228.78344727 C-110.15310373 231.23185943 -111.10457893 233.68106962 -112.0546875 236.13085938 C-115.31330345 244.52567475 -118.68785199 252.86918825 -122.13671875 261.1875 C-122.39769852 261.81698044 -122.65867828 262.44646088 -122.92756653 263.09501648 C-124.24365651 266.26825983 -125.56226595 269.44040132 -126.88452148 272.61108398 C-129.1905105 278.15755684 -131.46119412 283.70857952 -133.59375 289.32421875 C-137.34251268 299.04162101 -141.34153333 308.66081411 -145.28515625 318.30078125 C-117.56515625 318.30078125 -89.84515625 318.30078125 -61.28515625 318.30078125 C-60.29515625 315.00078125 -59.30515625 311.70078125 -58.28515625 308.30078125 C-57.23701493 305.46882943 -56.16906767 302.66456895 -55.046875 299.86328125 C-54.42678129 298.29197833 -53.80750448 296.72035283 -53.18896484 295.1484375 C-52.87393005 294.34937988 -52.55889526 293.55032227 -52.23431396 292.72705078 C-50.68388548 288.76379228 -49.18073602 284.78295208 -47.6796875 280.80078125 C-47.38415985 280.01783691 -47.0886322 279.23489258 -46.78414917 278.42822266 C-45.58285679 275.24409982 -44.38334401 272.05930782 -43.18383789 268.87451172 C-36.64450572 251.51912063 -36.64450572 251.51912063 -33.28515625 243.30078125 C-31.93603515 247.34814455 -33.04078443 249.01245791 -34.5390625 252.984375 C-34.79129074 253.66005524 -35.04351898 254.33573547 -35.3033905 255.03189087 C-36.14225521 257.27094665 -36.99468357 259.50456571 -37.84765625 261.73828125 C-38.43385743 263.29266529 -39.01946101 264.84727483 -39.60449219 266.40209961 C-45.16095939 281.12727267 -50.8512775 295.80281605 -56.58203125 310.4609375 C-56.84187302 311.12703033 -57.10171478 311.79312317 -57.36943054 312.47940063 C-58.27650927 314.79312589 -59.17309543 317.07665961 -60.28515625 319.30078125 C-74.18296251 322.40092239 -90.11053934 321.16213979 -104.34765625 321.36328125 C-105.57287868 321.38129917 -105.57287868 321.38129917 -106.82285309 321.39968109 C-140.12721771 321.83061918 -175.18560676 317.96409597 -205.28515625 302.30078125 C-204.81362552 295.18681765 -201.94142735 289.1708699 -199.16015625 282.67578125 C-198.33837383 280.72811518 -197.52003737 278.77902418 -196.70195007 276.82980347 C-196.12362186 275.45194624 -195.54443097 274.07445081 -194.96443176 272.69729614 C-191.64348127 264.80331836 -188.43190629 256.86566717 -185.22265625 248.92578125 C-184.59756289 247.38131956 -183.97239904 245.83688641 -183.34716797 244.29248047 C-181.6831374 240.18101392 -180.02061092 236.06894091 -178.35858154 231.95666504 C-177.24069183 229.19076677 -176.12256877 226.42496293 -175.00439453 223.65917969 C-171.78336715 215.6918957 -168.56257595 207.72451635 -165.3425293 199.75683594 C-158.60562722 183.08788366 -151.85378854 166.42502148 -145.09570312 149.76464844 C-142.3051913 142.88508848 -139.51629513 136.00487348 -136.72723389 129.12472534 C-135.16064426 125.26021718 -133.5940034 121.39572978 -132.02734375 117.53125 C-131.71757599 116.7671431 -131.40780823 116.00303619 -131.08865356 115.21577454 C-128.92789307 109.88591507 -126.76674687 104.55621209 -124.60546875 99.2265625 C-121.16586095 90.74445993 -117.72747083 82.26186423 -114.28961182 73.77905273 C-113.24838944 71.21006729 -112.20697011 68.64116174 -111.16552734 66.07226562 C-109.33988729 61.56886451 -107.51526231 57.06505285 -105.69091797 52.56112671 C-104.60864646 49.89040184 -103.52508466 47.22020309 -102.44140625 44.55004883 C-99.13592492 36.39808196 -95.85470895 28.23842232 -92.6484375 20.046875 C-92.09150548 18.63008154 -91.53446152 17.21333208 -90.97729492 15.79663086 C-89.95776545 13.20374041 -88.95056427 10.60653035 -87.95043945 8.00610352 C-87.50659912 6.87615967 -87.06275879 5.74621582 -86.60546875 4.58203125 C-86.22664551 3.60298828 -85.84782227 2.62394531 -85.45751953 1.61523438 C-84.28515625 -0.69921875 -84.28515625 -0.69921875 -81.28515625 -2.69921875 C-78.56872559 -2.9911499 -78.56872559 -2.9911499 -75.24414062 -3.04980469 C-73.37574524 -3.0892923 -73.37574524 -3.0892923 -71.46960449 -3.12957764 C-70.10604548 -3.14811084 -68.74247902 -3.16610227 -67.37890625 -3.18359375 C-65.97464083 -3.20740815 -64.57038459 -3.23176965 -63.1661377 -3.25665283 C-60.21726256 -3.30659857 -57.26839035 -3.34935823 -54.31933594 -3.38720703 C-50.56817548 -3.43598767 -46.81761773 -3.50313229 -43.06685638 -3.57595444 C-40.16188572 -3.6301199 -37.25682501 -3.67385747 -34.35163879 -3.71466827 C-32.97071596 -3.73535545 -31.58983687 -3.75925245 -30.20903015 -3.78661346 C-19.65554083 -3.98762808 -10.13062668 -2.98737927 0 0 Z " fill="#FBD4D9" transform="translate(920.28515625,389.69921875)"/>
<path d="M0 0 C5.22662926 1.94498999 10.63513998 3.29973689 16.01416016 4.75537109 C18.95904852 5.57551122 21.90284532 6.3991176 24.84472656 7.22998047 C26.82211736 7.76665738 28.80999778 8.26558191 30.8046875 8.73388672 C31.79549316 8.97300781 32.78629883 9.21212891 33.80712891 9.45849609 C34.69940186 9.66120117 35.5916748 9.86390625 36.51098633 10.07275391 C38.70166016 11.00537109 38.70166016 11.00537109 40.00756836 13.10205078 C40.23661865 13.73014648 40.46566895 14.35824219 40.70166016 15.00537109 C39.9188266 14.76138329 39.9188266 14.76138329 39.12017822 14.51246643 C36.03808256 13.8662375 33.15589513 13.8860114 30.00537109 13.8918457 C29.34154419 13.89169968 28.67771729 13.89155365 27.99377441 13.8914032 C25.80782765 13.89209777 23.62196696 13.89986878 21.43603516 13.90771484 C19.91717577 13.90958064 18.39831577 13.91100378 16.87945557 13.91200256 C12.88788177 13.915815 8.89634454 13.92563439 4.90478516 13.93670654 C0.82926935 13.94694806 -3.24625237 13.95150605 -7.32177734 13.95654297 C-15.3139816 13.96725782 -23.30615617 13.98431893 -31.29833984 14.00537109 C-33.05236828 18.13758052 -34.80442525 22.27062312 -36.55615234 26.40380859 C-37.04833252 27.56323975 -37.5405127 28.7226709 -38.04760742 29.91723633 C-41.48787227 38.03809466 -44.81510373 46.19559815 -48.06005859 54.39599609 C-49.84694354 58.89729647 -51.67179699 63.3823338 -53.50537109 67.86474609 C-53.93329956 68.9122554 -53.93329956 68.9122554 -54.36987305 69.98092651 C-56.7137753 75.71841941 -56.7137753 75.71841941 -57.82342529 78.41827393 C-60.64648775 85.28820913 -63.38365218 92.14932879 -65.81787109 99.16943359 C-67.79621263 104.81044476 -70.15628843 110.15022129 -72.71386719 115.54882812 C-75.44317442 121.50283918 -77.81572691 127.59920029 -80.2210083 133.68972778 C-81.74362423 137.54514504 -83.27775549 141.3959837 -84.81005859 145.24755859 C-85.26119019 146.38297844 -85.26119019 146.38297844 -85.72143555 147.54133606 C-88.58449971 154.74151286 -91.50878375 161.91591099 -94.45776367 169.08129883 C-96.05719487 172.96815333 -97.64396842 176.85899705 -99.20068359 180.76318359 C-100.75510519 184.66020018 -102.33179143 188.54754855 -103.91943359 192.43115234 C-104.38027344 193.5584375 -104.84111328 194.68572266 -105.31591797 195.84716797 C-106.2578656 198.14956266 -107.20056646 200.45164935 -108.14404297 202.75341797 C-110.37756452 208.22040587 -112.57395545 213.69482793 -114.66943359 219.21630859 C-117.89649764 227.66236479 -121.42270859 235.98258884 -124.92333984 244.31787109 C-125.92982593 246.71566194 -126.93571027 249.11369686 -127.93978882 251.51249695 C-128.55833105 252.99015837 -129.17820313 254.46726419 -129.79971313 255.94367981 C-131.49225231 259.98617412 -133.08818233 264.05230386 -134.61129761 268.16157532 C-135.54799182 270.67535503 -136.53697654 273.16680347 -137.53271484 275.65771484 C-137.9388501 276.67389893 -138.34498535 277.69008301 -138.76342773 278.73706055 C-139.18744873 279.79497803 -139.61146973 280.85289551 -140.04833984 281.94287109 C-140.70660767 283.58872192 -140.70660767 283.58872192 -141.37817383 285.26782227 C-144.27404408 292.49402504 -147.20601866 299.70410958 -150.22900391 306.87817383 C-151.50260814 309.92830678 -152.49301102 312.78405578 -153.29833984 316.00537109 C-125.57833984 315.67537109 -97.85833984 315.34537109 -69.29833984 315.00537109 C-68.96833984 313.02537109 -68.63833984 311.04537109 -68.29833984 309.00537109 C-67.40240714 306.36794532 -66.47053883 303.78589944 -65.46240234 301.19287109 C-65.18238373 300.46092529 -64.90236511 299.72897949 -64.61386108 298.97485352 C-64.02309339 297.43418822 -63.42958777 295.89457028 -62.83349609 294.35595703 C-61.92708339 292.01503925 -61.03000742 289.67070689 -60.13427734 287.32568359 C-59.55670132 285.82286832 -58.97859385 284.32025718 -58.39990234 282.81787109 C-58.13416412 282.12395264 -57.8684259 281.43003418 -57.59463501 280.71508789 C-56.03149453 276.69251894 -54.2923696 272.83987168 -52.29833984 269.00537109 C-51.14242728 272.47310877 -51.44801406 273.08478788 -52.72949219 276.36914062 C-53.06669281 277.24659943 -53.40389343 278.12405823 -53.75131226 279.02810669 C-54.31212997 280.44384476 -54.31212997 280.44384476 -54.88427734 281.88818359 C-55.4488414 283.34319778 -55.4488414 283.34319778 -56.02481079 284.8276062 C-56.82256056 286.87863554 -57.62479908 288.92792374 -58.43115234 290.97558594 C-59.66974522 294.12124183 -60.89539075 297.27169444 -62.11865234 300.42333984 C-62.89394511 302.41191323 -63.66996221 304.40020441 -64.44677734 306.38818359 C-64.81660736 307.33605743 -65.18643738 308.28393127 -65.56747437 309.26052856 C-65.91097931 310.13168304 -66.25448425 311.00283752 -66.60839844 311.90039062 C-66.9111972 312.67077667 -67.21399597 313.44116272 -67.52597046 314.2348938 C-68.29833984 316.00537109 -68.29833984 316.00537109 -69.29833984 317.00537109 C-71.66395173 317.1302834 -74.00185082 317.19137868 -76.36914062 317.21069336 C-77.10906754 317.22059296 -77.84899445 317.23049255 -78.61134338 317.24069214 C-81.07207994 317.27242459 -83.53283547 317.29712492 -85.99365234 317.32177734 C-87.70181782 317.3423511 -89.40997825 317.36334768 -91.11813354 317.38475037 C-95.62979933 317.44008227 -100.14151228 317.48941289 -104.65325928 317.53759766 C-109.22249806 317.58753359 -113.7916628 317.6434823 -118.36083984 317.69873047 C-125.05758477 317.77858251 -131.75434523 317.85673822 -138.45117188 317.92944336 C-139.14444077 317.93722305 -139.83770966 317.94500275 -140.55198669 317.95301819 C-142.46740918 317.97336453 -144.38287545 317.98945179 -146.29833984 318.00537109 C-147.52516983 318.02802032 -148.75199982 318.05066956 -150.01600647 318.07400513 C-152.83058315 318.01515195 -154.98742678 317.76683275 -157.6628418 316.9831543 C-158.44508621 316.75904373 -159.22733063 316.53493317 -160.03327942 316.30403137 C-160.85938217 316.05723129 -161.68548492 315.81043121 -162.53662109 315.55615234 C-163.41626022 315.30165817 -164.29589935 315.047164 -165.20219421 314.78495789 C-168.00770253 313.97131537 -170.80928586 313.14501498 -173.61083984 312.31787109 C-175.44977595 311.78118379 -177.28896696 311.24536909 -179.12841797 310.71044922 C-181.8540094 309.91774008 -184.57940085 309.12442145 -187.30374146 308.3274231 C-195.94539801 305.80222863 -204.61677745 303.38921264 -213.29833984 301.00537109 C-214.82074337 297.10259933 -213.70978233 294.77228076 -212.15771484 291.00146484 C-211.42584961 289.19935547 -211.42584961 289.19935547 -210.67919922 287.36083984 C-210.13574996 286.05477929 -209.59212553 284.74879161 -209.04833984 283.44287109 C-208.49324992 282.08653092 -207.93922754 280.7297534 -207.38623047 279.37255859 C-206.25036642 276.58991332 -205.1082895 273.8099529 -203.96044922 271.03222656 C-201.99952138 266.28644806 -200.06368605 261.53056089 -198.12866211 256.77416992 C-197.2322519 254.57155728 -196.33426988 252.36958375 -195.43481445 250.16821289 C-192.11795964 242.04719045 -188.85688205 233.90491665 -185.61083984 225.75537109 C-180.93342842 214.01699595 -176.16499054 202.31740933 -171.36083984 190.63037109 C-171.02069855 189.80284332 -170.68055725 188.97531555 -170.33010864 188.12271118 C-169.99035004 187.29613007 -169.65059143 186.46954895 -169.30053711 185.61791992 C-168.618795 183.95931816 -167.93707289 182.30070818 -167.25537109 180.64208984 C-166.92038101 179.82704483 -166.58539093 179.01199982 -166.24024963 178.17225647 C-162.9933443 170.26907181 -159.7644439 162.35863687 -156.54833984 154.44287109 C-156.28168518 153.78658722 -156.01503052 153.13030334 -155.74029541 152.45413208 C-152.03862003 143.33863362 -148.37776263 134.20742923 -144.73583984 125.06787109 C-138.90339636 110.43187115 -132.93823193 95.85063285 -126.97427368 81.26782227 C-121.91113161 68.8859092 -116.86831988 56.49746889 -111.92333984 44.06787109 C-107.86130691 33.86452626 -103.74056276 23.68669552 -99.5692749 13.52755737 C-98.93470019 11.98177411 -98.30094014 10.43565614 -97.66802979 8.88919067 C-96.79353472 6.7536433 -95.91564551 4.61952616 -95.03662109 2.48583984 C-94.77370773 1.84268829 -94.51079437 1.19953674 -94.23991394 0.53689575 C-92.41309316 -3.87987559 -92.41309316 -3.87987559 -91.29833984 -4.99462891 C-88.27878245 -5.22981429 -85.28019563 -5.40057479 -82.25537109 -5.52587891 C-81.31828812 -5.56668579 -80.38120514 -5.60749268 -79.41572571 -5.64953613 C-20.39652595 -8.09186525 -20.39652595 -8.09186525 0 0 Z " fill="#FBD3D8" transform="translate(1670.29833984375,386.99462890625)"/>
<path d="M0 0 C7.07399911 -0.09917891 14.14797104 -0.17626474 21.22242928 -0.23412514 C25.08445392 -0.2668542 28.94534986 -0.3106068 32.80673313 -0.38934803 C49.81070384 -0.72978406 64.49240615 0.66847784 80.62048435 6.30440807 C84.5395805 7.63999611 88.51597672 8.72950929 92.51056004 9.81331921 C93.881901 10.19524516 95.25300223 10.57803316 96.62384129 10.96175671 C98.65995763 11.52848493 100.69627029 12.09449855 102.732728 12.65999889 C104.78415231 13.2302317 106.83488797 13.80288819 108.88556004 14.37581921 C110.0629575 14.70307995 111.24035496 15.03034069 112.45343113 15.36751842 C115.23712254 16.19613171 115.23712254 16.19613171 117.23712254 17.19613171 C117.23712254 17.85613171 117.23712254 18.51613171 117.23712254 19.19613171 C116.04136616 19.19468954 116.04136616 19.19468954 114.82145309 19.19321823 C92.61958547 19.17038884 70.41916244 19.24293729 48.217659 19.36521769 C44.5842718 19.38512036 40.95088157 19.40443918 37.31749141 19.42379212 C26.58101352 19.48103747 15.84454689 19.54022361 5.10808277 19.59998989 C0.04016114 19.62818383 -5.02776239 19.65601973 -10.09568661 19.68374354 C-51.16734137 19.90850031 -92.23894164 20.13524693 -133.30975246 20.48519421 C-133.99338431 20.4910108 -134.67701615 20.4968274 -135.38136411 20.50282025 C-148.45360037 20.61431183 -161.52577356 20.73190391 -174.59786987 20.85876846 C-180.00572648 20.9111633 -185.41359375 20.9623426 -190.82147121 21.01253796 C-192.33285703 21.02659711 -192.33285703 21.02659711 -193.87477589 21.04094028 C-216.17130131 21.24356714 -238.46537239 21.22686266 -260.76287746 21.19613171 C-260.76287746 46.27613171 -260.76287746 71.35613171 -260.76287746 97.19613171 C-261.75287746 97.69113171 -261.75287746 97.69113171 -262.76287746 98.19613171 C-258.8911135 99.48671969 -255.23631169 99.33051567 -251.2019186 99.31638622 C-250.31730802 99.31724065 -249.43269743 99.31809507 -248.52128047 99.31897539 C-245.54555873 99.32062762 -242.56989287 99.31511299 -239.59417629 99.3096571 C-237.46568204 99.30937514 -235.3371877 99.30953312 -233.2086935 99.3100996 C-227.4197911 99.31038726 -221.63090929 99.30449561 -215.84201169 99.29752564 C-209.79615937 99.29128686 -203.75030661 99.29068789 -197.70445156 99.28950024 C-186.25102308 99.28638847 -174.7976041 99.27817716 -163.34417981 99.26815075 C-150.30687467 99.25698481 -137.26956908 99.25147795 -124.23226035 99.24645531 C-97.40912744 99.23599443 -70.58600298 99.21839797 -43.76287746 99.19613171 C-43.76287746 99.52613171 -43.76287746 99.85613171 -43.76287746 100.19613171 C-50.78456223 100.25281757 -57.80625124 100.30895545 -64.82794464 100.36456215 C-68.36991845 100.39261357 -71.9118913 100.42077638 -75.45386219 100.44919491 C-91.82309 100.58035002 -108.192298 100.70249944 -124.56178737 100.79618621 C-130.90801618 100.83261068 -137.25423657 100.87048484 -143.60045576 100.90854311 C-145.18283712 100.91799357 -146.76521902 100.92735613 -148.34760141 100.93663168 C-166.94781017 101.04592321 -185.53981096 101.2194699 -204.13581181 101.65598583 C-239.41637429 102.46764726 -271.24051312 101.78494669 -304.73614407 88.94295788 C-308.92136064 87.40075737 -313.20437531 86.17953523 -317.48504543 84.93148327 C-319.76287746 84.19613171 -319.76287746 84.19613171 -320.76287746 83.19613171 C-320.86319626 80.73707949 -320.89905927 78.30609743 -320.892272 75.84652233 C-320.89402431 75.07745052 -320.89577663 74.30837872 -320.89758205 73.5160017 C-320.90200086 70.96143908 -320.89906249 68.4069451 -320.89568996 65.85238171 C-320.896363 64.0850069 -320.89733301 62.31763218 -320.89858913 60.55025768 C-320.90006615 56.84122368 -320.89791145 53.13221371 -320.89324856 49.42318249 C-320.88755127 44.65790678 -320.89083025 39.89268739 -320.89682102 35.12741375 C-320.90042655 31.47642114 -320.89928809 27.82544198 -320.89669323 24.17444897 C-320.89602394 22.41689071 -320.89685246 20.65933126 -320.89917278 18.90177441 C-320.90169917 16.44973016 -320.89785893 13.9977784 -320.892272 11.54574108 C-320.89429623 10.81219906 -320.89632046 10.07865704 -320.89840603 9.32288647 C-320.87714011 4.31039435 -320.87714011 4.31039435 -319.76287746 3.19613171 C-310.79235814 1.92793485 -301.67859223 2.03389867 -292.63934231 2.00667858 C-291.14829476 1.99868807 -289.65724941 1.99027791 -288.16620636 1.98148727 C-284.95730669 1.96346867 -281.74841181 1.94839274 -278.53948689 1.93565083 C-273.36669534 1.91509867 -268.19395 1.88793725 -263.0211935 1.86005688 C-255.59467634 1.82069386 -248.16814983 1.78440341 -240.74160671 1.75030041 C-223.19870136 1.66958157 -205.6558657 1.57531214 -188.11302662 1.48143864 C-184.18088996 1.46040902 -180.24875216 1.43961463 -176.3166132 1.41901875 C-144.54739993 1.25235491 -112.77927495 1.02092843 -81.01094151 0.73353672 C-72.30460119 0.65520519 -63.59822641 0.5843264 -54.89178371 0.51839733 C-53.10650926 0.50480647 -53.10650926 0.50480647 -51.28516865 0.49094105 C-46.63122641 0.45556496 -41.97728395 0.42023354 -37.3233366 0.38553524 C-24.88160876 0.2920795 -12.44085648 0.17560463 0 0 Z " fill="#FEFAFB" transform="translate(1374.7628774642944,989.8038682937622)"/>
<path d="M0 0 C3 1 3 1 4.11572266 3.04345703 C4.4616748 3.93919434 4.80762695 4.83493164 5.1640625 5.7578125 C5.55964355 6.76497314 5.95522461 7.77213379 6.36279297 8.80981445 C6.77932129 9.90382568 7.19584961 10.99783691 7.625 12.125 C8.06086426 13.24414795 8.49672852 14.3632959 8.94580078 15.51635742 C9.85436655 17.85114488 10.7584279 20.1876897 11.65820312 22.52587891 C12.92648354 25.80965445 14.21588207 29.08403839 15.515625 32.35546875 C18.9333838 40.97231723 22.29564184 49.55912802 25.11328125 58.39453125 C26.44294512 62.30151715 28.09013916 66.06200516 29.7109375 69.85546875 C31.10876359 73.26531725 32.34464098 76.70950385 33.5625 80.1875 C35.18095224 84.79580327 36.93514753 89.24462837 38.97265625 93.6796875 C42.21312011 100.99845378 44.86153713 108.57353731 47.5 116.125 C48.98707843 120.33993792 50.58569918 124.3995217 52.5 128.4375 C55.03690078 133.82048634 56.83690416 139.35914771 58.59375 145.03125 C59.63559157 148.16855842 60.93728641 151.12281504 62.328125 154.12109375 C65.27781007 160.48764323 67.76970686 167.00160483 70.25 173.5625 C71.12938864 175.87661374 72.00955571 178.19043187 72.890625 180.50390625 C73.27250977 181.51267822 73.65439453 182.5214502 74.04785156 183.56079102 C74.94034824 185.95682904 74.94034824 185.95682904 76 188 C103.06 188 130.12 188 158 188 C154.45880786 178.55682097 150.93023318 169.27155245 147.00390625 160.01171875 C146 157 146 157 147 154 C148.88431486 158.33548397 150.75354896 162.67704292 152.60913086 167.02490234 C153.24239794 168.50290393 153.87974266 169.97916534 154.52124023 171.45361328 C155.44292902 173.57399725 156.34974534 175.70021837 157.25390625 177.828125 C157.54342667 178.48556702 157.83294708 179.14300903 158.13124084 179.82037354 C159.24998978 182.48608721 160.05843949 184.47560082 159.73413086 187.38574219 C159 189 159 189 158 190 C155.67881692 190.1696219 153.38574835 190.27418116 151.06079102 190.33569336 C150.33048707 190.35800176 149.60018312 190.38031015 148.84774876 190.40329456 C139.08790627 190.68440917 129.32569544 190.83712454 119.5625 190.9375 C118.61940601 190.94765263 117.67631203 190.95780525 116.70463943 190.96826553 C84.91443379 191.26890432 57.18381874 188.35879944 27.25421143 176.79348755 C24.73526061 175.90681113 22.19144578 175.25465594 19.6081543 174.58032227 C15.25659224 173.29330644 15.25659224 173.29330644 13.15380859 170.88964844 C12.86328613 170.0546582 12.57276367 169.21966797 12.2734375 168.359375 C11.71994629 166.88307617 11.71994629 166.88307617 11.15527344 165.37695312 C10.7740332 164.26255859 10.39279297 163.14816406 10 162 C9.52449089 160.75227879 9.04274966 159.50691954 8.55566406 158.26367188 C7.17026935 154.715261 5.82740222 151.15240924 4.49581909 147.58349609 C2.9779638 143.51616521 1.44720645 139.45368693 -0.08203125 135.390625 C-0.39955856 134.54608765 -0.71708588 133.70155029 -1.04423523 132.8314209 C-4.66854377 123.2023371 -8.36284884 113.60033422 -12.0625 104 C-12.37556091 103.18728638 -12.68862183 102.37457275 -13.01116943 101.53723145 C-13.62124358 99.95350807 -14.23142967 98.36982782 -14.84173584 96.78619385 C-15.42037763 95.28448349 -15.9987156 93.78265603 -16.57672119 92.28070068 C-17.88956709 88.87100847 -19.20804712 85.46380731 -20.54248047 82.0625 C-21.23108154 80.2990625 -21.23108154 80.2990625 -21.93359375 78.5 C-22.53578735 76.96859375 -22.53578735 76.96859375 -23.15014648 75.40625 C-24 73 -24 73 -24 71 C-24.66 71 -25.32 71 -26 71 C-26.0825 71.78375 -26.165 72.5675 -26.25 73.375 C-27.24365069 78.177645 -29.08713518 82.49809489 -31 87 C-32.46014033 82.44891019 -30.88315566 79.25791551 -29.16796875 74.9921875 C-28.70663292 73.80673592 -28.70663292 73.80673592 -28.23597717 72.59733582 C-27.22999787 70.0191056 -26.20881591 67.4471887 -25.1875 64.875 C-24.49401159 63.10516914 -23.80163333 61.3349029 -23.11035156 59.56420898 C-21.72819623 56.02728867 -20.34076681 52.49251537 -18.94873047 48.95947266 C-16.34400347 42.34183068 -13.79503151 35.70329554 -11.25 29.0625 C-10.48441341 27.07420396 -9.71879134 25.08592158 -8.953125 23.09765625 C-7.74517593 19.95426638 -6.54920437 16.80703343 -5.37109375 13.65234375 C-4.21982889 10.58558408 -3.03626925 7.53832367 -1.8125 4.5 C-1.46832031 3.6440625 -1.12414062 2.788125 -0.76953125 1.90625 C-0.38861328 0.96265625 -0.38861328 0.96265625 0 0 Z " fill="#FEE0E7" transform="translate(931,518)"/>
<path d="M0 0 C0.66 0 1.32 0 2 0 C2.30292969 0.88300781 2.60585937 1.76601563 2.91796875 2.67578125 C3.33691406 3.87589844 3.75585938 5.07601562 4.1875 6.3125 C4.59355469 7.48425781 4.99960938 8.65601563 5.41796875 9.86328125 C6.58263894 13.04313477 7.9370758 16.09900636 9.359375 19.171875 C12.19653716 25.32814129 14.64834074 31.60546251 17.0625 37.9375 C17.48337891 39.02740234 17.90425781 40.11730469 18.33789062 41.24023438 C20.75574195 47.54913947 23.01099568 53.88502832 25.08496094 60.31542969 C26.35767193 64.04934913 27.90350863 67.64604346 29.44921875 71.2734375 C31.56197549 76.28962332 33.52067268 81.36759388 35.5 86.4375 C35.86762451 87.37827393 36.23524902 88.31904785 36.61401367 89.28833008 C38.57102336 94.30649215 40.51223626 99.33044618 42.44140625 104.359375 C45.06658207 111.19304531 47.75060893 118.0029134 50.4375 124.8125 C53.38512041 132.29326482 56.33093633 139.77278608 59.125 147.3125 C61.93519138 154.89100444 64.88280525 162.41348084 67.84228516 169.93481445 C68.89876956 172.62169616 69.94974209 175.31067979 71 178 C71.3088916 178.77859375 71.6177832 179.5571875 71.93603516 180.359375 C73.11354748 183.38351914 74 185.72416055 74 189 C101.39 188.67 128.78 188.34 157 188 C156.01 184.7 155.02 181.4 154 178 C153.67 176.35 153.34 174.7 153 173 C156.02437438 176.45642786 158.03102964 180.51433547 159 185 C158.70007976 186.67300231 158.36997796 188.34108312 158 190 C152.40702672 190.30454959 146.81329909 190.58420873 141.21820068 190.84686279 C139.04260275 190.95038803 136.86718643 191.05779128 134.69195557 191.16876221 C125.90143021 191.60925219 117.11290576 191.91417377 108.3125 192.0625 C107.62835526 192.07421738 106.94421051 192.08593475 106.23933411 192.0980072 C83.70344975 192.43202428 63.36025555 189.65613166 41.75 183.25 C40.51537018 182.88448029 39.28074036 182.51896057 38.00869751 182.1423645 C34.53080299 181.09111844 31.06731305 180.00564262 27.609375 178.890625 C26.58637802 178.56120407 25.56338104 178.23178314 24.50938416 177.89237976 C15.60844418 174.85212761 15.60844418 174.85212761 13 171 C11.58435248 168.08908022 10.4385434 165.10727814 9.3125 162.07421875 C8.97327515 161.18706177 8.63405029 160.29990479 8.2845459 159.38586426 C7.17976508 156.49007757 6.08995308 153.58889633 5 150.6875 C4.23742951 148.68162847 3.4737498 146.67617829 2.70898438 144.67114258 C1.17880929 140.65625635 -0.34632939 136.63951823 -1.8671875 132.62109375 C-4.46754457 125.75717175 -7.1125434 118.91089906 -9.76965332 112.06878662 C-10.49308323 110.20531679 -11.21481165 108.3411867 -11.93652344 106.47705078 C-16.2614951 95.30648361 -20.62265148 84.15013546 -25 73 C-27.10850329 76.16275494 -28.28830876 79.13471538 -29.625 82.6875 C-30.07101562 83.86699219 -30.51703125 85.04648437 -30.9765625 86.26171875 C-31.31429688 87.16535156 -31.65203125 88.06898438 -32 89 C-33.48559138 84.39856897 -31.83053074 81.12658687 -30.09765625 76.81640625 C-29.78472122 76.01266068 -29.47178619 75.2089151 -29.14936829 74.3808136 C-28.13054766 71.770609 -27.09660101 69.1666839 -26.0625 66.5625 C-25.36231751 64.77599448 -24.66326238 62.98904672 -23.96533203 61.20166016 C-22.59669955 57.69945101 -21.22315558 54.19924043 -19.84521484 50.70068359 C-17.64550432 45.10833885 -15.50054387 39.4959067 -13.375 33.875 C-12.77240243 32.29026303 -12.16955535 30.7056209 -11.56640625 29.12109375 C-10.57344875 26.50940555 -9.5814384 23.89736266 -8.58984375 21.28515625 C-5.86036479 14.13175115 -2.98534074 7.05048559 0 0 Z " fill="#FEE0E7" transform="translate(1673,512)"/>
<path d="M0 0 C3.79187747 0.19635729 7.04940141 0.97417204 10.70703125 1.98828125 C11.3729126 2.17132812 12.03879395 2.354375 12.72485352 2.54296875 C16.13001516 3.49135704 19.49547609 4.50991931 22.83203125 5.67578125 C28.8246373 7.76016596 35.02857227 9.12564072 41.19129944 10.60722351 C42.74317047 11.00769353 44.28491548 11.44847099 45.81736755 11.9178009 C52.56306101 13.94749276 58.72713854 14.64129816 65.75 14.6875 C67.29147453 14.7144268 67.29147453 14.7144268 68.86408997 14.74189758 C72.10336362 14.79550113 75.34249428 14.82973468 78.58203125 14.86328125 C80.79624365 14.89649849 83.0104373 14.93099213 85.22460938 14.96679688 C90.61445484 15.05119793 96.00432004 15.11975595 101.39453125 15.17578125 C101.39453125 15.50578125 101.39453125 15.83578125 101.39453125 16.17578125 C86.21453125 16.17578125 71.03453125 16.17578125 55.39453125 16.17578125 C55.39453125 41.25578125 55.39453125 66.33578125 55.39453125 92.17578125 C54.40453125 92.67078125 54.40453125 92.67078125 53.39453125 93.17578125 C57.26629521 94.46636924 60.92109702 94.31016521 64.95549011 94.29603577 C65.8401007 94.29689019 66.72471128 94.29774462 67.63612825 94.29862493 C70.61184999 94.30027716 73.58751584 94.29476253 76.56323242 94.28930664 C78.69172667 94.28902469 80.82022102 94.28918266 82.94871521 94.28974915 C88.73761761 94.2900368 94.52649942 94.28414516 100.31539702 94.27717519 C106.36124935 94.27093641 112.40710211 94.27033743 118.45295715 94.26914978 C129.90638564 94.26603802 141.35980461 94.2578267 152.81322891 94.24780029 C165.85053405 94.23663436 178.88783964 94.23112749 191.92514837 94.22610486 C218.74828127 94.21564397 245.57140573 94.19804751 272.39453125 94.17578125 C272.39453125 94.50578125 272.39453125 94.83578125 272.39453125 95.17578125 C263.97078542 95.24378592 255.5470327 95.31091087 247.12327623 95.37758398 C244.98305126 95.39454174 242.84282681 95.41156482 240.70260239 95.42859268 C223.54814738 95.56482144 206.39367733 95.69134238 189.23901367 95.79833984 C187.65064772 95.80832623 186.06228185 95.81832517 184.47391605 95.82833672 C183.68868098 95.83328388 182.90344591 95.83823104 182.09441584 95.84332812 C180.51193097 95.85330319 178.92944613 95.86328298 177.34696132 95.87326753 C173.39737089 95.89817508 169.44777959 95.9229192 165.49818611 95.9473381 C147.51950965 96.05927271 129.54416925 96.22169708 111.56735802 96.5149765 C106.18742661 96.59769309 100.80719571 96.65640648 95.42691517 96.71126938 C91.49147821 96.75330481 87.55790747 96.81099583 83.62350464 96.91186523 C62.38490144 97.44709513 44.35903256 94.18486456 24.39453125 87.17578125 C24.39453125 86.51578125 24.39453125 85.85578125 24.39453125 85.17578125 C23.09515625 84.94890625 21.79578125 84.72203125 20.45703125 84.48828125 C15.33016461 83.46881785 10.34408979 82.08246883 5.33203125 80.61328125 C4.56963135 80.3913208 3.80723145 80.16936035 3.02172852 79.94067383 C-2.47801949 78.30323051 -2.47801949 78.30323051 -3.60546875 77.17578125 C-3.7057257 74.8081655 -3.7416581 72.46971052 -3.73486328 70.1015625 C-3.7366156 69.3617514 -3.73836792 68.62194031 -3.74017334 67.85971069 C-3.74459185 65.40254402 -3.74165388 62.94544872 -3.73828125 60.48828125 C-3.73895429 58.78816718 -3.73992432 57.0880532 -3.74118042 55.38793945 C-3.74265739 51.82014044 -3.74050286 48.25236642 -3.73583984 44.68457031 C-3.73014255 40.10089631 -3.73342156 35.51728086 -3.73941231 30.93360901 C-3.74301794 27.42158564 -3.74187932 23.90957627 -3.73928452 20.39755249 C-3.73861525 18.70698032 -3.73944364 17.01640689 -3.74176407 15.32583618 C-3.74429064 12.96718968 -3.74044996 10.6086393 -3.73486328 8.25 C-3.73688751 7.54451019 -3.73891174 6.83902039 -3.74099731 6.1121521 C-3.71514764 0.25064714 -3.71514764 0.25064714 0 0 Z " fill="#FBD9E0" transform="translate(1058.60546875,994.82421875)"/>
<path d="M0 0 C5.22662926 1.94498999 10.63513998 3.29973689 16.01416016 4.75537109 C18.95904852 5.57551122 21.90284532 6.3991176 24.84472656 7.22998047 C26.82211736 7.76665738 28.80999778 8.26558191 30.8046875 8.73388672 C31.79549316 8.97300781 32.78629883 9.21212891 33.80712891 9.45849609 C34.69940186 9.66120117 35.5916748 9.86390625 36.51098633 10.07275391 C38.70166016 11.00537109 38.70166016 11.00537109 40.00756836 13.10205078 C40.23661865 13.73014648 40.46566895 14.35824219 40.70166016 15.00537109 C39.71166016 14.67537109 38.72166016 14.34537109 37.70166016 14.00537109 C37.70166016 13.34537109 37.70166016 12.68537109 37.70166016 12.00537109 C36.83818466 12.01869476 35.97470917 12.03201843 35.08506775 12.04574585 C26.83660283 12.16735781 18.58845064 12.25800927 10.33928585 12.31624413 C6.10103704 12.34719281 1.8635455 12.3889705 -2.37426758 12.45800781 C-24.67769423 12.8116816 -44.50822267 12.0637123 -65.29833984 3.00537109 C-67.51267806 2.4433299 -69.74357222 1.94288673 -71.98583984 1.50537109 C-78.47678294 0.19048551 -84.88669101 -1.33887344 -91.29833984 -2.99462891 C-91.44529297 -2.44315186 -91.59224609 -1.8916748 -91.74365234 -1.32348633 C-93.97812563 6.60231243 -97.10872069 14.11704581 -100.29833984 21.69287109 C-100.83785029 22.98500186 -101.37691536 24.27731868 -101.91552734 25.56982422 C-104.34655404 31.39462407 -106.80720911 37.20605182 -109.29833984 43.00537109 C-110.46481855 39.50593497 -110.13397947 38.92965851 -108.77539062 35.64160156 C-108.41816925 34.76414276 -108.06094788 33.88668396 -107.69290161 32.9826355 C-107.29714935 32.03881012 -106.90139709 31.09498474 -106.49365234 30.12255859 C-106.09508026 29.15254913 -105.69650818 28.18253967 -105.28585815 27.18313599 C-104.44109036 25.13198159 -103.59177089 23.08269683 -102.73828125 21.03515625 C-101.42723831 17.88972422 -100.12915282 14.73919927 -98.83349609 11.58740234 C-98.01262976 9.59881206 -97.1910397 7.61052033 -96.36865234 5.62255859 C-95.97694855 4.67468475 -95.58524475 3.72681091 -95.18167114 2.75021362 C-94.6363826 1.4434819 -94.6363826 1.4434819 -94.08007812 0.11035156 C-93.75951447 -0.66003448 -93.43895081 -1.43042053 -93.1086731 -2.22415161 C-92.29833984 -3.99462891 -92.29833984 -3.99462891 -91.29833984 -4.99462891 C-88.27878245 -5.22981429 -85.28019563 -5.40057479 -82.25537109 -5.52587891 C-81.31828812 -5.56668579 -80.38120514 -5.60749268 -79.41572571 -5.64953613 C-20.39652595 -8.09186525 -20.39652595 -8.09186525 0 0 Z " fill="#FEFAFC" transform="translate(1670.29833984375,386.99462890625)"/>
<path d="M0 0 C1.09578369 0.31864014 2.19156738 0.63728027 3.32055664 0.96557617 C4.46129639 1.30306885 5.60203613 1.64056152 6.77734375 1.98828125 C14.23084757 4.17536923 21.67813829 6.32285488 29.21484375 8.20703125 C30.99556274 8.65816284 30.99556274 8.65816284 32.81225586 9.1184082 C35.07993327 9.68768423 37.35154962 10.24154676 39.62719727 10.77807617 C40.64740967 11.03693604 41.66762207 11.2957959 42.71875 11.5625 C43.61408447 11.77865967 44.50941895 11.99481934 45.43188477 12.2175293 C48.48074542 13.66419754 49.38137275 15.24470527 50.71484375 18.30078125 C50.38484375 19.29078125 50.05484375 20.28078125 49.71484375 21.30078125 C49.20129837 20.32541412 48.68775299 19.350047 48.15864563 18.34512329 C46.00406253 15.01467034 46.00406253 15.01467034 42.48747253 14.56820679 C40.5701104 14.57964218 40.5701104 14.57964218 38.61401367 14.59130859 C37.55200241 14.58500175 37.55200241 14.58500175 36.46853638 14.5785675 C34.12659484 14.57085703 31.78701448 14.60448057 29.4453125 14.63671875 C27.80544018 14.63562382 26.16556715 14.63130976 24.52571106 14.62393188 C20.1992865 14.61050938 15.87369058 14.62934847 11.54736328 14.65838623 C4.6634216 14.7036586 -2.22004528 14.71911743 -9.10410118 14.69884109 C-11.48766699 14.69920842 -13.86999153 14.7247866 -16.25337219 14.75253296 C-28.64366436 14.80222248 -39.08971387 12.15771572 -50.78515625 8.08203125 C-54.91326614 6.79199691 -59.12193088 5.8116761 -63.32275391 4.79003906 C-68.06201615 3.63073053 -72.72338445 2.3190482 -77.3671875 0.81640625 C-79.43699994 0.17097086 -79.43699994 0.17097086 -82.28515625 0.30078125 C-84.76015625 6.24078125 -84.76015625 6.24078125 -87.28515625 12.30078125 C-88.49829589 8.66136233 -87.94757798 7.71304341 -86.53515625 4.23828125 C-86.1896875 3.36042969 -85.84421875 2.48257812 -85.48828125 1.578125 C-84.28515625 -0.69921875 -84.28515625 -0.69921875 -81.28515625 -2.69921875 C-78.56872559 -2.9911499 -78.56872559 -2.9911499 -75.24414062 -3.04980469 C-73.37574524 -3.0892923 -73.37574524 -3.0892923 -71.46960449 -3.12957764 C-70.10604548 -3.14811084 -68.74247902 -3.16610227 -67.37890625 -3.18359375 C-65.97464083 -3.20740815 -64.57038459 -3.23176965 -63.1661377 -3.25665283 C-60.21726256 -3.30659857 -57.26839035 -3.34935823 -54.31933594 -3.38720703 C-50.56817548 -3.43598767 -46.81761773 -3.50313229 -43.06685638 -3.57595444 C-40.16188572 -3.6301199 -37.25682501 -3.67385747 -34.35163879 -3.71466827 C-32.97071596 -3.73535545 -31.58983687 -3.75925245 -30.20903015 -3.78661346 C-19.65554083 -3.98762808 -10.13062668 -2.98737927 0 0 Z " fill="#FDFAFB" transform="translate(920.28515625,389.69921875)"/>
<path d="M0 0 C2.0464708 0.28939787 2.0464708 0.28939787 3.96846485 -0.88022804 C5.70890655 -0.96472432 7.45256207 -0.98745828 9.19502735 -0.97788429 C10.22627735 -0.97466164 11.25752735 -0.97143898 12.32002735 -0.96811867 C13.94037891 -0.95555031 13.94037891 -0.95555031 15.59346485 -0.94272804 C17.22541798 -0.93596046 17.22541798 -0.93596046 18.89033985 -0.92905617 C21.58310274 -0.9172458 24.27575673 -0.90077583 26.96846485 -0.88022804 C26.96846485 -0.22022804 26.96846485 0.43977196 26.96846485 1.11977196 C36.53846485 1.11977196 46.10846485 1.11977196 55.96846485 1.11977196 C55.96846485 1.44977196 55.96846485 1.77977196 55.96846485 2.11977196 C41.03288355 3.07727369 26.13213332 3.32094339 11.1689043 3.4168911 C8.62285559 3.43638305 6.07680968 3.45624555 3.53076649 3.47644615 C-2.63564439 3.52437417 -8.80207223 3.56834374 -14.96852567 3.6103893 C-22.22895028 3.66005783 -29.48933928 3.71424755 -36.74973068 3.76852041 C-49.78854659 3.86582364 -62.82738915 3.95892205 -75.86625195 4.0497036 C-88.33991061 4.13655227 -100.81354069 4.2265909 -113.28715038 4.32021141 C-246.98360908 5.32291358 -246.98360908 5.32291358 -305.03153515 5.11977196 C-305.03153515 4.78977196 -305.03153515 4.45977196 -305.03153515 4.11977196 C-289.66593309 2.89284713 -274.28206915 2.91962418 -258.8784132 2.84938049 C-255.11530268 2.8309898 -251.35223112 2.80664997 -247.58915234 2.78273582 C-236.44404721 2.7130084 -225.29889097 2.65324957 -214.15372753 2.59370995 C-205.44336233 2.54701066 -196.73302253 2.49794677 -188.02270985 2.44222307 C-183.54968069 2.41387894 -179.07665919 2.39028711 -174.60358524 2.37029839 C-172.50137715 2.36016033 -170.39919706 2.34777693 -168.29700756 2.33435631 C-165.73064298 2.31797577 -163.16425212 2.30519568 -160.59784985 2.29654503 C-159.47671795 2.28820137 -158.35558605 2.27985771 -157.20048046 2.27126122 C-156.2205714 2.26610748 -155.24066235 2.26095375 -154.23105907 2.25564384 C-152.05599181 2.36495004 -152.05599181 2.36495004 -151.03153515 1.11977196 C-149.65664797 0.96533446 -148.27427098 0.87678116 -146.89208508 0.81572533 C-146.00351157 0.775585 -145.11493807 0.73544468 -144.1994381 0.69408798 C-142.72861007 0.63724051 -142.72861007 0.63724051 -141.22806835 0.57924461 C-140.20113778 0.53749422 -139.17420721 0.49574383 -138.11615753 0.45272827 C-125.3768264 -0.02902078 -112.63393692 -0.13078178 -99.8870039 -0.23179054 C-97.25340132 -0.25498402 -94.61980047 -0.27837456 -91.98620129 -0.30195045 C-86.51622706 -0.35023246 -81.04623222 -0.39500443 -75.57621288 -0.43784523 C-69.28145162 -0.48721581 -62.98677948 -0.54357481 -56.69210833 -0.60326636 C-50.57696317 -0.66098773 -44.4617815 -0.7126249 -38.34656239 -0.7618618 C-35.76747542 -0.78332326 -33.18840175 -0.8064534 -30.60934544 -0.83132744 C-27.01205819 -0.86536869 -23.41478136 -0.89246466 -19.81742382 -0.9178257 C-18.24242107 -0.93488815 -18.24242107 -0.93488815 -16.63560009 -0.9522953 C-11.01733355 -0.9840366 -5.57411975 -0.7264529 0 0 Z " fill="#DE8498" transform="translate(1420.0315351486206,1084.8802280426025)"/>
<path d="M0 0 C2.65494707 0.00502892 5.30989506 0.00958935 7.96484375 0.01367188 C14.39324988 0.02455819 20.82162042 0.04118421 27.25 0.0625 C27.25 0.3925 27.25 0.7225 27.25 1.0625 C17.35 1.3925 7.45 1.7225 -2.75 2.0625 C2.53 2.3925 7.81 2.7225 13.25 3.0625 C13.25 3.3925 13.25 3.7225 13.25 4.0625 C-4.4121369 4.19618038 -22.07429496 4.32659951 -39.73648071 4.45365143 C-47.94689017 4.51277998 -56.15729094 4.57279425 -64.36767578 4.63525391 C-110.82925297 4.98804859 -157.28709362 5.13306855 -203.75 5.0625 C-203.75 4.7325 -203.75 4.4025 -203.75 4.0625 C-188.38439794 2.83557518 -173.000534 2.86235222 -157.59687805 2.79210854 C-153.83376753 2.77371785 -150.07069597 2.74937802 -146.30761719 2.72546387 C-135.16251206 2.65573644 -124.01735582 2.59597762 -112.87219238 2.53643799 C-104.16182718 2.4897387 -95.45148739 2.44067481 -86.7411747 2.38495111 C-82.26814555 2.35660698 -77.79512404 2.33301515 -73.32205009 2.31302643 C-71.219842 2.30288837 -69.11766191 2.29050497 -67.01547241 2.27708435 C-64.44910783 2.26070381 -61.88271697 2.24792373 -59.3163147 2.23927307 C-58.1951828 2.23092941 -57.0740509 2.22258575 -55.91894531 2.21398926 C-54.93903625 2.20883553 -53.9591272 2.20368179 -52.94952393 2.19837189 C-50.77445666 2.30767808 -50.77445666 2.30767808 -49.75 1.0625 C-47.0086997 0.81114253 -44.29511519 0.63283928 -41.546875 0.50390625 C-40.66892273 0.46165421 -39.79097046 0.41940216 -38.88641357 0.37586975 C-25.93143901 -0.17644347 -12.9635719 -0.04314136 0 0 Z " fill="#D68898" transform="translate(1318.75,1084.9375)"/>
<path d="M0 0 C3.02437438 3.45642786 5.03102964 7.51433547 6 12 C5.70007976 13.67300231 5.36997796 15.34108312 5 17 C-1.66493989 17.37368447 -8.33141376 17.69850778 -15 18 C-16.1105072 18.05097839 -17.2210144 18.10195679 -18.36517334 18.15447998 C-27.30373611 18.54730666 -36.24151889 18.80711173 -45.1875 18.9375 C-45.87790375 18.94809448 -46.5683075 18.95868896 -47.27963257 18.96960449 C-75.8591449 19.35833449 -101.11803245 13.92054663 -128 4 C-128 3.67 -128 3.34 -128 3 C-125.03 3 -122.06 3 -119 3 C-119 3.66 -119 4.32 -119 5 C-118.1646875 4.6596875 -118.1646875 4.6596875 -117.3125 4.3125 C-115 4 -115 4 -113.015625 5.31640625 C-108.70739485 7.72164873 -104.22846338 8.56252763 -99.4375 9.625 C-98.49197266 9.8415625 -97.54644531 10.058125 -96.57226562 10.28125 C-94.81659748 10.68325458 -93.06009085 11.08162798 -91.30249023 11.47509766 C-90.54266846 11.64831543 -89.78284668 11.8215332 -89 12 C-88.32332275 12.14614746 -87.64664551 12.29229492 -86.94946289 12.44287109 C-85 13 -85 13 -83.39421082 14.02062988 C-79.89610322 15.45155736 -76.46229624 15.26131722 -72.74316406 15.22705078 C-71.49870766 15.22748886 -71.49870766 15.22748886 -70.22911072 15.22793579 C-67.49117518 15.2265442 -64.75351291 15.21099104 -62.015625 15.1953125 C-60.11562244 15.19158176 -58.21561796 15.18873508 -56.31561279 15.18673706 C-51.31787798 15.17910539 -46.32025964 15.15946085 -41.3225708 15.1373291 C-36.22157364 15.11686067 -31.12055765 15.10773321 -26.01953125 15.09765625 C-16.01296969 15.07621457 -6.00649454 15.04208419 4 15 C3.79503906 14.33613281 3.59007812 13.67226563 3.37890625 12.98828125 C3.10949219 12.10527344 2.84007812 11.22226562 2.5625 10.3125 C2.29566406 9.44238281 2.02882813 8.57226562 1.75390625 7.67578125 C1.03655471 5.12974079 0.482459 2.5996577 0 0 Z " fill="#FBEFF3" transform="translate(1826,685)"/>
<path d="M0 0 C2.65494707 0.00502892 5.30989506 0.00958935 7.96484375 0.01367188 C14.39324988 0.02455819 20.82162042 0.04118421 27.25 0.0625 C27.25 0.3925 27.25 0.7225 27.25 1.0625 C17.35 1.3925 7.45 1.7225 -2.75 2.0625 C2.53 2.3925 7.81 2.7225 13.25 3.0625 C13.25 3.3925 13.25 3.7225 13.25 4.0625 C5.34841497 4.10882389 -2.55311339 4.1443694 -10.45480061 4.16612434 C-14.12380581 4.1765652 -17.79271816 4.1907298 -21.46166992 4.21337891 C-25.00187786 4.23509669 -28.54199644 4.24706636 -32.08226585 4.25225449 C-34.09143905 4.25775273 -36.10057626 4.27336735 -38.10969543 4.28909302 C-39.33073471 4.28924408 -40.55177399 4.28939514 -41.80981445 4.28955078 C-43.42530937 4.29621262 -43.42530937 4.29621262 -45.07344055 4.30300903 C-47.75 4.0625 -47.75 4.0625 -50.75 2.0625 C-48.67962445 -0.00787555 -44.39695543 0.6376171 -41.546875 0.50390625 C-40.66892273 0.46165421 -39.79097046 0.41940216 -38.88641357 0.37586975 C-25.93143901 -0.17644347 -12.9635719 -0.04314136 0 0 Z " fill="#E18D9F" transform="translate(1318.75,1084.9375)"/>
<path d="M0 0 C1.43831687 4.31495062 -0.45377425 7.21639997 -2.1484375 11.2109375 C-2.48042145 12.01608795 -2.8124054 12.8212384 -3.15444946 13.65078735 C-4.21903534 16.2293344 -5.29618857 18.80237576 -6.375 21.375 C-7.44494684 23.94114048 -8.51210145 26.50836014 -9.5741272 29.07778931 C-10.23575908 30.67702072 -10.90221286 32.27426792 -11.57406616 33.86923218 C-13.10828092 37.56345514 -14.41982141 41.01188995 -15 45 C-13.97390625 44.95488281 -12.9478125 44.90976562 -11.890625 44.86328125 C-7.92813332 45.00252544 -5.40484697 45.724661 -1.75 47.1875 C3.96069168 49.34041252 9.64923955 51.05726363 15.5625 52.5625 C23.12249911 54.48868199 30.57015106 56.61231067 38 59 C34.56437621 60.16894974 32.41550048 59.81553423 28.95605469 58.82836914 C27.95531921 58.54800308 26.95458374 58.26763702 25.92352295 57.97877502 C24.85047913 57.66738083 23.7774353 57.35598663 22.671875 57.03515625 C21.56773254 56.72299667 20.46359009 56.4108371 19.32598877 56.08921814 C15.79797179 55.08950101 12.27402609 54.07618534 8.75 53.0625 C6.35963047 52.38256476 3.96900827 51.70351717 1.578125 51.02539062 C-4.28422161 49.36055166 -10.14328303 47.68452965 -16 46 C-17.30467428 41.75553594 -16.34015897 39.58842097 -14.6484375 35.46875 C-14.39252838 34.83698853 -14.13661926 34.20522705 -13.87295532 33.55432129 C-13.05073682 31.53176768 -12.21314892 29.51599666 -11.375 27.5 C-10.83361819 26.17489431 -10.2932436 24.84937663 -9.75390625 23.5234375 C-8.18477845 19.67580612 -6.5956035 15.83671606 -5 12 C-4.50016602 10.79730469 -4.00033203 9.59460938 -3.48535156 8.35546875 C-2.32560405 5.56945567 -1.16401773 2.78423107 0 0 Z " fill="#FCFBFC" transform="translate(1473,642)"/>
<path d="M0 0 C1.88806964 0.36495777 1.88806964 0.36495777 3.78515625 -0.80859375 C5.52559795 -0.89309003 7.26925347 -0.91582399 9.01171875 -0.90625 C10.04296875 -0.90302734 11.07421875 -0.89980469 12.13671875 -0.89648438 C13.21695312 -0.88810547 14.2971875 -0.87972656 15.41015625 -0.87109375 C17.04210938 -0.86432617 17.04210938 -0.86432617 18.70703125 -0.85742188 C21.39979414 -0.84561151 24.09244813 -0.82914153 26.78515625 -0.80859375 C26.78515625 -0.14859375 26.78515625 0.51140625 26.78515625 1.19140625 C36.35515625 1.19140625 45.92515625 1.19140625 55.78515625 1.19140625 C55.78515625 1.52140625 55.78515625 1.85140625 55.78515625 2.19140625 C29.05515625 2.19140625 2.32515625 2.19140625 -25.21484375 2.19140625 C-25.21484375 1.86140625 -25.21484375 1.53140625 -25.21484375 1.19140625 C-7.74106839 -1.26140909 -7.74106839 -1.26140909 0 0 Z " fill="#DF788F" transform="translate(1420.21484375,1084.80859375)"/>
<path d="M0 0 C0.66 0 1.32 0 2 0 C1.40108673 3.40688352 0.54065411 6.43106602 -0.78125 9.625 C-1.13832031 10.49511719 -1.49539063 11.36523438 -1.86328125 12.26171875 C-2.23839844 13.16535156 -2.61351562 14.06898438 -3 15 C-3.74008579 16.81229489 -4.47966498 18.62479674 -5.21875 20.4375 C-6.35987348 23.22168443 -7.50220433 26.00537165 -8.64453125 28.7890625 C-9.01964844 29.70429687 -9.39476562 30.61953125 -9.78125 31.5625 C-10.15121094 32.46226562 -10.52117187 33.36203125 -10.90234375 34.2890625 C-11.63992379 36.11070147 -12.36107882 37.93906947 -13.06640625 39.7734375 C-13.40542969 40.65257812 -13.74445313 41.53171875 -14.09375 42.4375 C-14.38958984 43.21996094 -14.68542969 44.00242187 -14.99023438 44.80859375 C-16.06765925 47.14683497 -17.38916623 48.99955863 -19 51 C-18.45912978 46.24801554 -17.50802523 42.24332982 -15.671875 37.83203125 C-15.20136719 36.69056641 -14.73085937 35.54910156 -14.24609375 34.37304688 C-13.50552734 32.61057617 -13.50552734 32.61057617 -12.75 30.8125 C-12.27175781 29.65685547 -11.79351563 28.50121094 -11.30078125 27.31054688 C-9.87522607 23.8702843 -8.43898598 20.43466357 -7 17 C-6.08796968 14.81664509 -5.17648015 12.63306418 -4.265625 10.44921875 C-3.87665039 9.51811279 -3.48767578 8.58700684 -3.08691406 7.62768555 C-2.03831842 5.09263729 -1.01338074 2.54930393 0 0 Z " fill="#C87281" transform="translate(1562,588)"/>
<path d="M0 0 C1.93166016 0.01740234 1.93166016 0.01740234 3.90234375 0.03515625 C5.19269531 0.04417969 6.48304687 0.05320312 7.8125 0.0625 C8.81152344 0.07410156 9.81054688 0.08570313 10.83984375 0.09765625 C10.17984375 1.41765625 9.51984375 2.73765625 8.83984375 4.09765625 C2.89984375 3.10765625 2.89984375 3.10765625 -3.16015625 2.09765625 C-3.53140625 3.44472656 -3.90265625 4.79179687 -4.28515625 6.1796875 C-6.40664513 13.24758209 -9.3006676 19.99344058 -12.16015625 26.78515625 C-12.6996667 28.07728702 -13.23873177 29.36960383 -13.77734375 30.66210938 C-16.20837044 36.48690923 -18.66902552 42.29833697 -21.16015625 48.09765625 C-22.32663496 44.59822012 -21.99579587 44.02194367 -20.63720703 40.73388672 C-20.27998566 39.85642792 -19.92276428 38.97896912 -19.55471802 38.07492065 C-19.15896576 37.13109528 -18.7632135 36.1872699 -18.35546875 35.21484375 C-17.95689667 34.24483429 -17.55832458 33.27482483 -17.14767456 32.27542114 C-16.30290677 30.22426674 -15.45358729 28.17498199 -14.60009766 26.12744141 C-13.28905471 22.98200938 -11.99096922 19.83148443 -10.6953125 16.6796875 C-9.87444617 14.69109722 -9.05285611 12.70280549 -8.23046875 10.71484375 C-7.83876495 9.76696991 -7.44706116 8.81909607 -7.04348755 7.84249878 C-6.49819901 6.53576706 -6.49819901 6.53576706 -5.94189453 5.20263672 C-5.62133087 4.43225067 -5.30076721 3.66186462 -4.9704895 2.86813354 C-3.60655557 -0.11189232 -3.5509739 0.10973343 0 0 Z " fill="#F8F5F6" transform="translate(1582.16015625,381.90234375)"/>
<path d="M0 0 C0.66 0.99 1.32 1.98 2 3 C1.3762207 5.25878906 1.3762207 5.25878906 0.11328125 8.015625 C-0.36157715 9.08490234 -0.83643555 10.15417969 -1.32568359 11.25585938 C-1.59394958 11.85068115 -1.86221558 12.44550293 -2.13861084 13.05834961 C-3.75072202 16.69219648 -5.25004058 20.37358855 -6.76953125 24.046875 C-7.43639574 25.64862627 -8.10371842 27.25018684 -8.77148438 28.8515625 C-9.10623779 29.6549707 -9.44099121 30.45837891 -9.78588867 31.28613281 C-12.52392578 37.85742188 -15.26196289 44.42871094 -18 51 C-18.66 51 -19.32 51 -20 51 C-17.60623822 43.45844951 -14.70457344 36.18683991 -11.6875 28.875 C-10.70537501 26.48061399 -9.72360193 24.08608359 -8.7421875 21.69140625 C-8.27135742 20.54430176 -7.80052734 19.39719727 -7.31542969 18.21533203 C-4.83778977 12.15918547 -2.41431489 6.08162865 0 0 Z " fill="#D88393" transform="translate(1634,410)"/>
<path d="M0 0 C1 2 1 2 -0.14453125 5.66796875 C-0.69299192 7.17723644 -1.24935118 8.68365112 -1.8125 10.1875 C-3.74194564 15.42197253 -5.49610641 20.62244111 -7 26 C-7.9422101 28.69264629 -8.97249986 31.33784054 -10 34 C-10.99 34 -11.98 34 -13 34 C-13.33 34.66 -13.66 35.32 -14 36 C-13.45587538 30.02263102 -11.64603908 25.16439498 -9.25 19.6875 C-8.71246094 18.4348938 -8.71246094 18.4348938 -8.1640625 17.15698242 C-5.64401774 11.33561104 -2.99226156 5.59610455 0 0 Z " fill="#C96F7E" transform="translate(1531,667)"/>
<path d="M0 0 C0.66 0.99 1.32 1.98 2 3 C1.0234598 5.8988149 -0.04659055 8.54093404 -1.3125 11.3125 C-2.06007619 13.01236965 -2.80610414 14.71292083 -3.55078125 16.4140625 C-3.94861816 17.31415039 -4.34645508 18.21423828 -4.75634766 19.14160156 C-6.92310522 24.12165604 -8.95654012 29.1558961 -11 34.1875 C-11.77071582 36.07687086 -12.54153892 37.96619796 -13.3125 39.85546875 C-13.87514383 41.23692059 -14.43770318 42.61840687 -15 44 C-15.66 44 -16.32 44 -17 44 C-14.69732084 36.79634831 -12.02063597 29.77415323 -9.23876953 22.74267578 C-8.4989903 20.87244739 -7.76288917 19.00080328 -7.02734375 17.12890625 C-4.76256227 11.38364316 -2.48331584 5.65457728 0 0 Z " fill="#D88494" transform="translate(889,424)"/>
<path d="M0 0 C1.17780811 2.8463696 0.98410541 4.04986288 0.03125 7.0390625 C-0.72671875 8.81410156 -0.72671875 8.81410156 -1.5 10.625 C-2.0559005 11.95131516 -2.61052922 13.2781639 -3.1640625 14.60546875 C-3.60927246 15.66193604 -3.60927246 15.66193604 -4.06347656 16.73974609 C-5.73684363 20.77833638 -7.30062337 24.85953991 -8.875 28.9375 C-9.47644888 30.48832532 -10.07800159 32.03911038 -10.6796875 33.58984375 C-11.11539063 34.71519531 -11.55109375 35.84054687 -12 37 C-12.66 37 -13.32 37 -14 37 C-13.60869581 31.26087193 -11.75338605 26.66349088 -9.46875 21.41015625 C-7.55929379 16.97676456 -5.8024613 12.48795208 -4.0559082 7.98828125 C-2.90558302 5.07076174 -1.74949552 2.62424328 0 0 Z " fill="#CE7888" transform="translate(863,490)"/>
<path d="M0 0 C0.65392731 -0.00058411 1.30785461 -0.00116821 1.9815979 -0.00177002 C4.14102443 0.00101468 6.29906692 0.03212114 8.45825195 0.06347656 C9.95611314 0.07093767 11.45398409 0.07663122 12.95185852 0.08062744 C16.89274077 0.0958943 20.83303256 0.13518432 24.77368164 0.17944336 C28.79541028 0.22037389 32.81723441 0.23863366 36.83911133 0.25878906 C44.72935614 0.3016783 52.61912121 0.36994148 60.5090332 0.45410156 C60.5090332 0.78410156 60.5090332 1.11410156 60.5090332 1.45410156 C59.7035907 1.45108536 58.89814819 1.44806915 58.06829834 1.44496155 C50.47558463 1.42271113 42.8840029 1.43388737 35.29143906 1.48256779 C31.38795271 1.50641747 27.48532038 1.5173622 23.58178711 1.4987793 C19.81407533 1.48131837 16.0478975 1.49780234 12.28037262 1.53777885 C10.8435048 1.54706944 9.40650423 1.54414996 7.96968842 1.52879524 C0.3147459 1.0662445 0.3147459 1.0662445 -6.28088379 4.07247925 C-7.59346178 6.17520076 -7.59346178 6.17520076 -8.4909668 9.45410156 C-8.8209668 9.45410156 -9.1509668 9.45410156 -9.4909668 9.45410156 C-9.72735218 6.61747702 -9.70301792 4.86505684 -8.38493347 2.31060791 C-5.65535335 -0.36498448 -3.77618975 -0.02833914 0 0 Z " fill="#D47E91" transform="translate(904.490966796875,404.5458984375)"/>
<path d="M0 0 C1.80868813 0.00333092 1.80868813 0.00333092 3.65391541 0.00672913 C4.64899864 0.00651009 4.64899864 0.00651009 5.66418457 0.00628662 C7.86644207 0.00698571 10.06861596 0.01477787 12.27085876 0.02259827 C13.79400588 0.02446246 15.31715359 0.02588636 16.84030151 0.02688599 C20.85657903 0.03071105 24.87282059 0.04054124 28.88908386 0.05158997 C32.98443617 0.06180433 37.07979427 0.06638366 41.17515564 0.07142639 C49.21618779 0.08216352 57.25719069 0.0992398 65.29820251 0.12025452 C65.79320251 1.11025452 65.79320251 1.11025452 66.29820251 2.12025452 C65.05245453 2.10359993 65.05245453 2.10359993 63.78153992 2.08660889 C55.95388794 1.98641307 48.12645139 1.91029304 40.29830551 1.86119366 C36.27374155 1.8351022 32.24970754 1.79971395 28.22544861 1.74305725 C24.34154812 1.688719 20.45815722 1.65883058 16.57390594 1.6458683 C15.0922722 1.63663145 13.61066628 1.6185934 12.12924957 1.59160423 C10.05311902 1.55528552 7.97909196 1.55030971 5.9026947 1.55262756 C4.72132935 1.54152451 3.53996399 1.53042145 2.32279968 1.51898193 C-0.9196318 1.8616686 -0.9196318 1.8616686 -3.11457825 4.6557312 C-3.6383606 5.4690239 -4.16214294 6.28231659 -4.70179749 7.12025452 C-3.66563357 0.16315397 -3.66563357 0.16315397 0 0 Z " fill="#D6788C" transform="translate(1641.7017974853516,399.87974548339844)"/>
<path d="M0 0 C1.26243674 3.78731022 0.53735466 4.66867397 -1.0625 8.25 C-3.17500574 13.100502 -5.22483831 17.96254993 -7.1875 22.875 C-7.67605469 24.08929687 -8.16460938 25.30359375 -8.66796875 26.5546875 C-9.8757749 29.6786905 -10.9717865 32.81302544 -12 36 C-12.66 36 -13.32 36 -14 36 C-13.45146695 31.12402238 -12.42359102 27.01683765 -10.56640625 22.48046875 C-10.08236328 21.29388672 -9.59832031 20.10730469 -9.09960938 18.88476562 C-8.72098755 17.97464722 -8.72098755 17.97464722 -8.3347168 17.04614258 C-7.55880242 15.17860033 -6.7971505 13.30569119 -6.03710938 11.43164062 C-2.26894423 2.26894423 -2.26894423 2.26894423 0 0 Z " fill="#CA7584" transform="translate(803,639)"/>
<path d="M0 0 C0.66 0 1.32 0 2 0 C-0.05201588 11.91061392 -5.58974023 23.278298 -11 34 C-13.92549625 25.22351124 -3.57856385 8.51842576 0 0 Z " fill="#C97382" transform="translate(834,560)"/>
<path d="M0 0 C0.66 0 1.32 0 2 0 C1.15214561 3.89421491 -0.23420434 7.58699457 -1.625 11.3125 C-1.8842627 12.00730469 -2.14352539 12.70210938 -2.41064453 13.41796875 C-5.2189571 20.79582371 -8.55332622 27.90270724 -12 35 C-13.15455222 31.63485623 -12.87036607 29.88150492 -11.5234375 26.62109375 C-11.18441406 25.78674805 -10.84539062 24.95240234 -10.49609375 24.09277344 C-10.12613281 23.2165332 -9.75617188 22.34029297 -9.375 21.4375 C-9.00761719 20.54450195 -8.64023438 19.65150391 -8.26171875 18.73144531 C-5.64953872 12.42325967 -2.94017693 6.16306318 0 0 Z " fill="#C87382" transform="translate(1605,483)"/>
<path d="M0 0 C7.26 0 14.52 0 22 0 C21.67 0.99 21.34 1.98 21 3 C13.74 3 6.48 3 -1 3 C-0.67 2.01 -0.34 1.02 0 0 Z " fill="#E9869C" transform="translate(1008,704)"/>
<path d="M0 0 C10.1037931 0.24480556 19.39309643 3.13589564 29 6 C29.33 5.34 29.66 4.68 30 4 C30 4.99 30 5.98 30 7 C25.51771388 8.00284612 22.54392131 7.90862105 18.1640625 6.56640625 C17.10058594 6.24736328 16.03710938 5.92832031 14.94140625 5.59960938 C13.84699219 5.25736328 12.75257812 4.91511719 11.625 4.5625 C10.50738281 4.22412109 9.38976563 3.88574219 8.23828125 3.53710938 C5.48849024 2.70277108 2.7428627 1.8567872 0 1 C0 0.67 0 0.34 0 0 Z " fill="#E8C3C9" transform="translate(1084,1080)"/>
<path d="M0 0 C2.23998245 6.71994735 -3.78265869 15.73545439 -6.8125 21.8125 C-7.53539982 23.21158919 -8.26201047 24.60881123 -9 26 C-10.23654352 22.50576734 -9.7818879 20.72891884 -8.3125 17.375 C-7.93996094 16.50617187 -7.56742188 15.63734375 -7.18359375 14.7421875 C-6.59771484 13.38480469 -6.59771484 13.38480469 -6 12 C-4.96894665 9.34660822 -3.94763526 6.68969209 -2.9296875 4.03125 C-2 2 -2 2 0 0 Z " fill="#C97281" transform="translate(1542,640)"/>
<path d="M0 0 C0.33 0 0.66 0 1 0 C1.6556849 6.29457503 -0.03948455 10.0793596 -4 15 C-4.99 15.495 -4.99 15.495 -6 16 C-5.53118166 10.37417987 -4.15551956 4.15551956 0 0 Z " fill="#CC7282" transform="translate(782,691)"/>
<path d="M0 0 C1 2 1 2 0.36328125 4.57421875 C-1.62027105 10.45113766 -3.66618976 15.76115533 -7 21 C-8.35908042 17.93617709 -7.89623023 16.67346169 -6.85546875 13.3984375 C-6.31102544 12.05256305 -5.75460876 10.71148203 -5.1875 9.375 C-4.91357422 8.694375 -4.63964844 8.01375 -4.35742188 7.3125 C-3.16976402 4.43022242 -2.22478133 2.22478133 0 0 Z " fill="#C87381" transform="translate(1587,529)"/>
<path d="M0 0 C0.66 0 1.32 0 2 0 C0.74646681 7.06536889 -1.56203749 12.71456473 -5 19 C-6.4216868 14.73493961 -4.65386682 11.79962257 -3.0625 7.8125 C-2.77181641 7.06291016 -2.48113281 6.31332031 -2.18164062 5.54101562 C-1.46274964 3.69075523 -0.73245347 1.84493352 0 0 Z " fill="#C87382" transform="translate(1577,551)"/>
<path d="M0 0 C1.4384431 4.31532929 -0.19180079 6.97656107 -2 11 C-2.95289657 12.69403834 -3.93360356 14.37501495 -5 16 C-6.32527172 12.3702749 -5.66675274 10.37711779 -4.1875 6.875 C-3.83042969 6.00617187 -3.47335937 5.13734375 -3.10546875 4.2421875 C-2 2 -2 2 0 0 Z " fill="#CB7584" transform="translate(812,617)"/>
<path d="M0 0 C1.35304209 4.05912626 0.15216503 5.77149591 -1.4375 9.6875 C-1.91058594 10.86699219 -2.38367187 12.04648437 -2.87109375 13.26171875 C-3.24363281 14.16535156 -3.61617187 15.06898438 -4 16 C-4.66 16 -5.32 16 -6 16 C-5.53118166 10.37417987 -4.15551956 4.15551956 0 0 Z " fill="#CA7482" transform="translate(1570,571)"/>
<path d="M0 0 C0.66 0 1.32 0 2 0 C0.33333333 5 -1.33333333 10 -3 15 C-3.66 15 -4.32 15 -5 15 C-4.5188509 9.22621075 -2.81532819 5.04140164 0 0 Z " fill="#CA7181" transform="translate(854,512)"/>
<path d="M0 0 C1.16161779 2.86578759 0.9946154 4.01630163 0.00390625 7.015625 C-0.70958984 8.61664063 -0.70958984 8.61664063 -1.4375 10.25 C-1.91058594 11.32765625 -2.38367187 12.4053125 -2.87109375 13.515625 C-3.24363281 14.33546875 -3.61617187 15.1553125 -4 16 C-4.66 16 -5.32 16 -6 16 C-4.25192871 10.53262809 -2.34205919 5.24175152 0 0 Z " fill="#DA8898" transform="translate(1613,462)"/>
<path d="M0 0 C1.24752897 3.74258691 0.5279335 4.46162767 -1 8 C-1.68679942 10.32748694 -2.35761043 12.65986656 -3 15 C-3.66 15 -4.32 15 -5 15 C-4.37321829 11.33827525 -3.35548154 8.1181005 -1.9375 4.6875 C-1.39416016 3.36298828 -1.39416016 3.36298828 -0.83984375 2.01171875 C-0.56269531 1.34785156 -0.28554688 0.68398438 0 0 Z " fill="#F8F0F1" transform="translate(831,402)"/>
<path d="M0 0 C5.28 0 10.56 0 16 0 C12 3 12 3 9.125 2.75 C8.09375 2.5025 7.0625 2.255 6 2 C4 1.66666667 2 1.33333333 0 1 C0 0.67 0 0.34 0 0 Z " fill="#FEF0F5" transform="translate(1056,994)"/>
<path d="M0 0 C3.46941546 0.45822468 6.67395049 0.89131683 10 2 C10 2.66 10 3.32 10 4 C7.69 3.67 5.38 3.34 3 3 C3 2.34 3 1.68 3 1 C2.01 0.67 1.02 0.34 0 0 Z " fill="#FDF2F5" transform="translate(1461,687)"/>
<path d="M0 0 C0.66 0.99 1.32 1.98 2 3 C1.3125 5.625 1.3125 5.625 0 8 C-0.99 8.33 -1.98 8.66 -3 9 C-2.01 6.03 -1.02 3.06 0 0 Z " fill="#CE7B89" transform="translate(829,572)"/>
<path d="M0 0 C1.25541557 3.76624671 0.37061958 5.37188934 -1 9 C-1.66 9 -2.32 9 -3 9 C-2.25 2.25 -2.25 2.25 0 0 Z " fill="#C97080" transform="translate(848,528)"/>
<path d="M0 0 C0.99 0.33 1.98 0.66 3 1 C2 4 2 4 0 5 C-1.13350534 7.01669827 -1.13350534 7.01669827 -2 9 C-2.33 8.34 -2.66 7.68 -3 7 C-2.06421005 4.64018187 -1.06652192 2.30368736 0 0 Z " fill="#F7C5CE" transform="translate(931,518)"/>
<path d="M0 0 C0.66 0 1.32 0 2 0 C1.30058404 3.14737182 0.23921302 6.02588876 -1 9 C-1.66 8.67 -2.32 8.34 -3 8 C-1.125 1.125 -1.125 1.125 0 0 Z " fill="#D37A8B" transform="translate(1605,483)"/>
<path d="M0 0 C1.31223496 3.93670488 0.24296256 6.12488144 -1 10 C-1.66 10 -2.32 10 -3 10 C-2.39009109 6.44219804 -1.4216319 3.3171411 0 0 Z " fill="#F9EDEF" transform="translate(1557,435)"/>
<path d="M0 0 C1 3 1 3 -0.4375 6.1875 C-1.2109375 7.5796875 -1.2109375 7.5796875 -2 9 C-2.6875 7.3125 -2.6875 7.3125 -3 5 C-1.5625 2.25 -1.5625 2.25 0 0 Z " fill="#C6707F" transform="translate(818,602)"/>
</svg>
